<svg xmlns="http://www.w3.org/2000/svg" xmlns:xlink="http://www.w3.org/1999/xlink" version="1.1" x="0px" y="0px"
    viewBox="0 0 60 75" style="enable-background:new 0 0 60 60;" xml:space="preserve">
    <g>
        <path
            d="M41.0780411,6c-7.125,0-12.9220543,5.7965202-12.9220543,12.9225845c0,7.125,5.7970543,12.9215202,12.9220543,12.9215202   s12.9220505-5.7965202,12.9220505-12.9215202C54.0000916,11.7965202,48.2030411,6,41.0780411,6z M42.1689491,27.703125h-2.1818199   v-3.50284h2.1818199V27.703125z M42.1689491,21.8171158h-2.1818199V10.142045h2.1818199V21.8171158z" />
        <path
            d="M11.3283949,51.136364v-2.1818199h23.5596123c0.0458794-1.2473793,0.2651367-2.4640007,0.6806221-3.6423988H10.625802   c-2.3916903,0-4.4158378,1.7354393-4.6086645,3.9524155c-0.1075993,1.2368584,0.2913709,2.4183235,1.1239347,3.3259926   C7.9619174,53.4865074,9.1295309,54,10.3440199,54h25.2991829c-0.31987-0.9706573-0.529274-1.9244041-0.6511917-2.863636   H11.3283949z" />
        <path
            d="M25.9741688,18.9225845c0-2.5797882,0.6526546-5.009099,1.7975636-7.1356525H10.4100704   c-2.4316401,0-4.4099784,1.9783382-4.4099784,4.410511v28.6799107c1.2230783-1.0835876,2.8560462-1.7470284,4.62571-1.7470284   h25.5063934v-9.9530144C30.2291412,31.1226692,25.9741688,25.5165119,25.9741688,18.9225845z M26.8099289,39.1875H15.3228903   v-2.1818199h11.4870386V39.1875z M26.8099289,33.0617905H15.3228903v-2.181818h11.4870386V33.0617905z" />
    </g><text x="0" y="75" fill="#000000" font-size="5px" font-weight="bold"
        font-family="'Helvetica Neue', Helvetica, Arial-Unicode, Arial, Sans-serif"></text><text x="0" y="80"
        fill="#000000" font-size="5px" font-weight="bold"
        font-family="'Helvetica Neue', Helvetica, Arial-Unicode, Arial, Sans-serif">from the Noun Project</text>
</svg>