<svg xmlns:dc="http://purl.org/dc/elements/1.1/" xmlns:cc="http://creativecommons.org/ns#"
    xmlns:rdf="http://www.w3.org/1999/02/22-rdf-syntax-ns#" xmlns:svg="http://www.w3.org/2000/svg"
    xmlns="http://www.w3.org/2000/svg" xmlns:sodipodi="http://sodipodi.sourceforge.net/DTD/sodipodi-0.dtd"
    xmlns:inkscape="http://www.inkscape.org/namespaces/inkscape" viewBox="0 0 1117.5 1372.39675" version="1.1" x="0px"
    y="0px">
    <g transform="translate(8494.0741,7313.6983)">
        <path style=""
            d="m -8195.0447,-6218.2561 c -63.3248,-16.5916 -88.8006,-91.882 -48.5125,-143.372 35.6017,-45.5005 105.8645,-45.5005 141.4662,0 12.9357,16.5323 19.2669,34.8991 19.2669,55.8928 0,41.7363 -27.6086,77.1377 -68.2676,87.5365 -12.6897,3.2454 -31.4408,3.221 -43.953,-0.057 z m 444.9447,0.089 c -18.3869,-4.5158 -35.5295,-15.2386 -48.4951,-30.334 -7.1555,-8.3309 -15.9172,-26.3797 -18.4986,-38.1063 -7.1029,-32.2674 4.6946,-66.2398 30.7851,-88.6492 8.3309,-7.1555 26.3797,-15.9172 38.1063,-18.4986 32.2673,-7.1029 66.2398,4.6946 88.6492,30.7851 7.1555,8.3309 15.9172,26.3797 18.4986,38.1062 7.1029,32.2674 -4.6946,66.2399 -30.7851,88.6493 -8.3309,7.1555 -26.3797,15.9172 -38.1063,18.4985 -11.671,2.5692 -28.6327,2.3786 -40.1541,-0.451 z m -587.7241,-231.8679 c 0,-0.7628 -137.3001,-513.1613 -145.5537,-543.2006 -7.2326,-26.3232 -10.6963,-40.8741 -10.6963,-44.9343 0,-2.562 0.1199,-2.5657 83.5285,-2.5657 l 83.5286,0 2.1625,17.6634 c 2.4797,20.2535 9.586,49.762 16.3667,67.9616 15.7715,42.331 43.1653,83.8556 75.7738,114.8609 119.1034,113.2476 306.9264,113.2476 426.0298,0 32.6085,-31.0053 60.0023,-72.5299 75.7738,-114.8609 6.7807,-18.1996 13.887,-47.7081 16.3667,-67.9616 l 2.1625,-17.6634 34.7786,0 34.7785,0 0,-70.625 0,-70.625 133.125,0 133.125,0 0,53.125 0,53.125 -80,0 -80,0 0,313.125 0,313.125 -400.625,0 c -220.3437,0 -400.625,-0.2472 -400.625,-0.5494 z m 293.75,-359.587 c -44.8377,-3.9368 -92.6986,-22.7185 -129.7323,-50.9098 -53.8441,-40.988 -89.2675,-103.1353 -97.7084,-171.421 -1.6834,-13.6183 -1.6834,-45.1973 0,-58.8156 11.7636,-95.1657 74.494,-174.8267 163.6907,-207.8703 29.3425,-10.8701 53.6846,-15.0596 87.5,-15.0596 27.374,0 38.9714,1.3755 63.0713,7.4804 71.6483,18.1497 133.1289,68.8135 165.1668,136.1073 16.4587,34.5707 24.2619,69.5473 24.2619,108.75 0,29.5902 -3.7406,53.1661 -12.6809,79.9238 -37.2127,111.3746 -145.7929,182.1556 -263.5691,171.8148 z m 63.125,-66.0026 c 38.3929,-8.9638 68.5889,-25.4593 95.0578,-51.9282 27.066,-27.0659 44.0374,-58.7273 52.6287,-98.1828 1.8306,-8.4072 2.3135,-15.9738 2.3135,-36.25 0,-27.939 -1.1171,-35.7702 -8.3805,-58.75 -17.9506,-56.7911 -65.4534,-104.2939 -122.2445,-122.2444 -22.9798,-7.2635 -30.811,-8.3806 -58.75,-8.3806 -27.939,0 -35.7702,1.1171 -58.75,8.3806 -56.7911,17.9505 -104.2939,65.4533 -122.2444,122.2444 -7.2635,22.9798 -8.3806,30.811 -8.3806,58.75 0,27.939 1.1171,35.7702 8.3806,58.75 17.9505,56.7911 65.4533,104.2939 122.2444,122.2445 10.1418,3.2056 18.2769,5.1174 35,8.2252 1.7188,0.3194 14.0938,0.3978 27.5,0.1743 19.2917,-0.3217 26.7212,-0.9542 35.625,-3.033 z m -55.3794,-77.6856 c -12.7086,-6.3505 -19.4016,-17.0954 -19.4194,-31.1754 -0.025,-19.8009 16.0493,-36.25 35.4238,-36.25 13.2858,0 27.139,9.162 32.5473,21.5257 10.3837,23.7378 -6.6259,49.7243 -32.5473,49.7243 -6.8138,0 -9.7593,-0.7039 -16.0044,-3.8246 z m -19.6652,-95.2184 c -0.3333,-0.8701 -0.4596,-29.4257 -0.2807,-63.457 l 0.3253,-61.875 35.625,0 35.625,0 0,63.125 0,63.125 -35.3442,0.332 c -27.6006,0.2593 -35.4771,-0.015 -35.9504,-1.25 z"
            fill="#000000" />
    </g>
</svg>