<svg width="290" height="380" viewBox="0 0 290 380" fill="none" xmlns="http://www.w3.org/2000/svg">
    <g clip-path="url(#clip0_1_630)">
        <ellipse cx="145.128" cy="351.424" rx="95.1279" ry="17.4244" fill="#CBD0DF" />
        <path
            d="M92.9222 325.488C67.1011 327.804 43.324 310.714 26.7678 290.783C10.7363 271.486 -1.41063 247.361 0.132219 222.328C1.17383 205.503 8.59045 189.148 20.5651 177.27C29.1408 168.764 40.8414 162.355 52.863 163.599C67.336 165.093 79.0757 177.097 93.5409 178.663C108.272 180.251 121.586 170.829 134.234 163.122C145.622 156.181 158.027 150.202 171.317 149.146C184.616 148.089 198.979 152.769 206.725 163.615C212.755 172.066 214.314 183.334 221.378 190.948C228.755 198.891 240.26 200.996 250.527 204.486C268.015 210.441 284.673 223.118 288.934 241.077C292.92 257.886 285.222 275.477 274.43 288.968C253.997 314.501 221.573 330.027 188.845 329.933C182.117 329.917 175.241 329.236 169.14 326.404"
            fill="#EBF0FF" />
        <path
            d="M87.1956 260.379C83.6401 258.446 80.2568 256.208 77.0849 253.704C73.9444 251.224 71.0075 248.485 68.3134 245.527C65.588 242.538 63.0975 239.329 60.889 235.941C58.6961 232.576 56.7695 229.039 55.1483 225.369C53.5272 221.699 52.2114 217.888 51.2246 213.999C51.0993 213.514 50.9819 213.029 50.8722 212.543C50.8174 212.324 50.4885 212.434 50.5355 212.653C51.4439 216.605 52.697 220.478 54.2712 224.227C55.8297 227.944 57.6936 231.535 59.8317 234.947C61.9697 238.367 64.3897 241.606 67.0447 244.643C69.7231 247.695 72.6443 250.535 75.777 253.11C78.894 255.668 82.2225 257.969 85.7233 259.972C86.154 260.223 86.5926 260.465 87.039 260.7C87.2348 260.802 87.3914 260.489 87.1956 260.379Z"
            fill="#C38821" />
        <path
            d="M51.5771 215.4C49.0944 214.265 46.5256 210.924 45.9931 207.653C45.8443 206.753 45.7973 205.79 46.0087 204.859C46.2202 203.92 46.7136 203.004 47.4184 202.535C48.1468 202.05 48.9926 202.097 49.7053 202.417C51.4987 203.216 52.5169 205.563 52.6735 208.005C52.8145 210.438 52.2428 212.966 51.5771 215.4Z"
            fill="#C38821" />
        <path
            d="M54.6862 224C52.2897 225.299 48.0685 225.338 45.1316 223.788C44.3249 223.366 43.5261 222.826 42.9074 222.09C42.2808 221.362 41.8501 220.416 41.9049 219.57C41.9597 218.694 42.5079 218.052 43.1893 217.677C44.9123 216.73 47.3949 217.332 49.439 218.678C51.4674 220.024 53.1434 222.004 54.6862 224Z"
            fill="#C38821" />
        <path
            d="M54.4435 224.383C53.5898 221.793 54.2947 217.638 56.3387 215.024C56.9026 214.304 57.5683 213.615 58.3985 213.13C59.2286 212.645 60.2389 212.387 61.0612 212.59C61.9149 212.794 62.4553 213.451 62.6981 214.187C63.3324 216.049 62.2908 218.389 60.607 220.157C58.9232 221.918 56.6755 223.217 54.4435 224.383Z"
            fill="#C38821" />
        <path
            d="M60.9751 235.792C58.8057 237.436 54.6392 238.124 51.5066 237.036C50.6451 236.739 49.7758 236.324 49.0474 235.698C48.3191 235.072 47.7473 234.204 47.669 233.359C47.5907 232.49 48.0293 231.762 48.648 231.293C50.2065 230.088 52.7518 230.315 54.976 231.332C57.1924 232.349 59.1425 234.055 60.9751 235.792Z"
            fill="#C38821" />
        <path
            d="M60.7871 236.207C59.5497 233.781 59.6124 229.563 61.2335 226.668C61.6799 225.87 62.236 225.087 62.98 224.485C63.724 223.882 64.6873 223.475 65.5331 223.546C66.4024 223.616 67.0368 224.187 67.3971 224.868C68.3056 226.613 67.6399 229.078 66.2458 231.081C64.8439 233.093 62.8234 234.712 60.7871 236.207Z"
            fill="#C38821" />
        <path
            d="M69.4803 246.748C67.5615 248.681 63.536 249.94 60.2781 249.314C59.3852 249.142 58.4611 248.853 57.6544 248.336C56.8478 247.82 56.1586 247.037 55.9628 246.216C55.7592 245.363 56.0959 244.588 56.6363 244.032C58.0069 242.624 60.5678 242.483 62.9095 243.179C65.2512 243.876 67.4284 245.284 69.4803 246.748Z"
            fill="#C38821" />
        <path
            d="M69.355 247.186C67.7887 244.956 67.2561 240.777 68.4543 237.686C68.7833 236.833 69.2297 235.98 69.8797 235.276C70.5376 234.572 71.4226 234.032 72.2684 233.985C73.1455 233.938 73.8504 234.407 74.2968 235.033C75.4402 236.63 75.127 239.173 74.0305 241.348C72.9341 243.531 71.1641 245.425 69.355 247.186Z"
            fill="#C38821" />
        <path
            d="M78.988 255.136C77.8054 256.967 74.8607 258.611 72.2136 258.65C71.4852 258.658 70.7177 258.587 70.005 258.313C69.2845 258.04 68.6188 257.539 68.3291 256.928C68.0315 256.294 68.1646 255.629 68.5014 255.113C69.3472 253.783 71.3208 253.258 73.263 253.423C75.2053 253.587 77.1397 254.33 78.988 255.136Z"
            fill="#C38821" />
        <path
            d="M78.9645 255.504C77.3747 254.017 76.2704 250.832 76.7011 248.219C76.8186 247.499 77.0222 246.763 77.4217 246.106C77.8211 245.449 78.4241 244.877 79.082 244.705C79.7555 244.525 80.3899 244.776 80.8441 245.198C82.0032 246.262 82.1755 248.297 81.6664 250.183C81.1652 252.061 80.0844 253.83 78.9645 255.504Z"
            fill="#C38821" />
        <path
            d="M80.7345 332.661C77.9464 335.619 74.1324 337.505 70.1617 338.382C66.191 339.258 62.0559 339.172 58.0304 338.593C45.7738 336.824 34.269 330.345 26.406 320.783C27.7687 319.272 29.7188 318.427 31.6454 317.77C38.9446 315.258 46.9172 314.726 54.4905 316.228C62.0637 317.731 69.2219 321.283 75.0017 326.393C76.6385 327.833 79.7164 330.752 80.7345 332.661Z"
            fill="#6FCF97" />
        <path
            d="M30.0634 321.127C36.4932 322.215 42.8056 323.897 49.0788 325.666C55.352 327.442 61.6095 329.312 67.961 330.791C71.5088 331.621 75.0878 332.325 78.7061 332.818C79.0272 332.865 79.129 332.364 78.8079 332.317C72.3546 331.433 66.0109 329.876 59.7299 328.146C53.4332 326.417 47.1913 324.507 40.8633 322.911C37.3234 322.019 33.76 321.229 30.1652 320.618C29.8441 320.571 29.7423 321.072 30.0634 321.127Z"
            fill="white" />
        <path
            d="M70.428 330.971C68.5405 331.957 66.5826 332.81 64.5777 333.522C62.5728 334.234 60.513 334.813 58.4298 335.244C57.2472 335.486 56.0568 335.682 54.8586 335.831C54.5375 335.87 54.5688 336.378 54.8977 336.339C57.0436 336.073 59.1738 335.658 61.2649 335.095C63.3481 334.532 65.4 333.827 67.3893 332.974C68.517 332.489 69.6291 331.965 70.7178 331.394C70.8431 331.331 70.8587 331.143 70.7882 331.041C70.6943 330.916 70.5455 330.908 70.428 330.971Z"
            fill="white" />
        <path
            d="M63.677 329.124C62.6198 327.364 61.2414 325.822 59.7064 324.468C58.1479 323.099 56.4327 321.909 54.6784 320.798C53.6838 320.172 52.6735 319.562 51.6632 318.959C51.3813 318.795 51.1542 319.249 51.4361 319.413C53.1982 320.462 54.9525 321.518 56.6285 322.7C58.2888 323.866 59.863 325.165 61.2257 326.675C61.9854 327.52 62.6746 328.436 63.2541 329.406C63.4264 329.688 63.8493 329.406 63.677 329.124Z"
            fill="white" />
        <path
            d="M52.4464 326.174C49.7679 327.184 46.972 327.833 44.1213 328.099C43.3225 328.177 42.5236 328.217 41.7248 328.232C41.3959 328.24 41.435 328.749 41.7639 328.741C44.646 328.686 47.5202 328.248 50.2848 327.434C51.068 327.207 51.8512 326.941 52.6187 326.652C52.9163 326.542 52.7518 326.065 52.4464 326.174Z"
            fill="white" />
        <path
            d="M44.7165 323.842C42.8448 321.714 40.5422 319.992 37.9813 318.779C37.2607 318.443 36.5167 318.145 35.7649 317.887C35.4516 317.785 35.295 318.263 35.6083 318.372C38.2162 319.249 40.6362 320.657 42.6803 322.496C43.2677 323.021 43.8159 323.584 44.3406 324.179C44.5599 324.429 44.9358 324.085 44.7165 323.842Z"
            fill="white" />
        <path
            d="M201.393 336.113C200.25 329.086 201.675 321.777 204.683 315.321C207.69 308.865 212.209 303.2 217.307 298.223C232.814 283.065 254.109 273.956 275.795 273.213C276.445 276.719 275.544 280.326 274.416 283.707C270.132 296.532 262.394 308.192 252.229 317.121C242.063 326.049 229.501 332.223 216.227 334.829C212.491 335.557 205.145 336.723 201.393 336.113Z"
            fill="#6FCF97" />
        <path
            d="M271.432 277.94C263.06 285.726 254.007 292.714 244.851 299.553C235.696 306.392 226.431 313.099 217.597 320.353C212.663 324.406 207.87 328.64 203.328 333.131C202.921 333.53 203.508 334.203 203.915 333.796C212.029 325.76 220.941 318.6 230.034 311.706C239.15 304.796 248.454 298.144 257.421 291.039C262.434 287.072 267.336 282.956 272.02 278.605C272.443 278.213 271.855 277.548 271.432 277.94Z"
            fill="white" />
        <path
            d="M214.731 323.577C215.365 319.899 216.266 316.268 217.409 312.715C218.553 309.162 219.939 305.688 221.568 302.331C222.492 300.429 223.487 298.567 224.552 296.744C224.841 296.251 224.097 295.758 223.808 296.259C221.889 299.529 220.205 302.933 218.764 306.447C217.323 309.945 216.125 313.552 215.193 317.215C214.66 319.296 214.214 321.401 213.846 323.522C213.807 323.757 214.042 323.983 214.261 323.991C214.519 324.007 214.684 323.811 214.731 323.577Z"
            fill="white" />
        <path
            d="M224.489 316.166C228.06 316.565 231.686 316.291 235.203 315.595C238.774 314.89 242.259 313.764 245.674 312.512C247.608 311.8 249.527 311.04 251.446 310.274C251.978 310.062 251.587 309.264 251.054 309.475C247.718 310.806 244.374 312.128 240.943 313.192C237.552 314.249 234.059 315.07 230.512 315.36C228.522 315.524 226.525 315.501 224.544 315.274C223.98 315.211 223.925 316.096 224.489 316.166Z"
            fill="white" />
        <path
            d="M240.56 303.677C242.009 298.888 244.084 294.294 246.747 290.053C247.491 288.864 248.282 287.706 249.112 286.579C249.449 286.117 248.705 285.632 248.368 286.094C245.376 290.163 242.933 294.623 241.108 299.334C240.591 300.672 240.129 302.034 239.714 303.403C239.549 303.943 240.395 304.225 240.56 303.677Z"
            fill="white" />
        <path
            d="M252.041 295.421C256.998 295.085 261.846 293.715 266.263 291.446C267.509 290.804 268.707 290.092 269.866 289.31C270.344 288.989 269.835 288.253 269.357 288.574C265.363 291.266 260.812 293.136 256.082 294.013C254.727 294.263 253.357 294.435 251.978 294.529C251.399 294.568 251.469 295.46 252.041 295.421Z"
            fill="white" />
        <path
            d="M83.4051 249.878C82.3086 245.989 81.5568 242.006 81.1339 237.983C80.7188 234.008 80.6326 229.994 80.8676 225.995C81.1025 221.957 81.6743 217.943 82.5592 213.991C83.4364 210.071 84.6268 206.228 86.1305 202.504C87.6342 198.779 89.4433 195.179 91.5422 191.759C91.8007 191.337 92.0748 190.907 92.3411 190.492C92.4664 190.304 92.1531 190.14 92.0278 190.327C89.8271 193.739 87.924 197.339 86.342 201.072C84.7678 204.781 83.4912 208.615 82.5358 212.536C81.5803 216.456 80.9381 220.447 80.6248 224.469C80.3037 228.515 80.3115 232.584 80.6561 236.63C80.9929 240.644 81.6664 244.635 82.6767 248.532C82.802 249.017 82.9352 249.502 83.0683 249.98C83.131 250.206 83.4677 250.097 83.4051 249.878Z"
            fill="#D27C7B" />
        <path
            d="M90.7904 193.004C89.8662 190.437 90.4693 186.266 92.4429 183.606C92.9833 182.87 93.6411 182.166 94.4556 181.665C95.2701 181.156 96.2726 180.875 97.1027 181.055C97.9564 181.234 98.5124 181.876 98.7866 182.604C99.4679 184.451 98.489 186.814 96.8521 188.622C95.2153 190.429 92.9989 191.783 90.7904 193.004Z"
            fill="#D27C7B" />
        <path
            d="M86.7962 201.228C84.1961 200.414 81.22 197.425 80.2802 194.248C80.0218 193.371 79.8495 192.425 79.9434 191.47C80.0296 190.515 80.4134 189.545 81.0477 188.989C81.7134 188.418 82.5592 188.363 83.2954 188.582C85.175 189.154 86.4829 191.353 86.9372 193.755C87.4071 196.149 87.1564 198.732 86.7962 201.228Z"
            fill="#D27C7B" />
        <path
            d="M86.3498 201.314C87.6107 198.896 91.0801 196.502 94.3773 196.142C95.2858 196.04 96.2491 196.04 97.1732 196.298C98.0974 196.556 98.9902 197.096 99.4209 197.824C99.8673 198.575 99.7733 199.42 99.4209 200.109C98.5281 201.862 96.1316 202.754 93.6881 202.777C91.2446 202.809 88.7463 202.104 86.3498 201.314Z"
            fill="#D27C7B" />
        <path
            d="M82.7316 213.952C80.0374 213.545 76.6385 211.041 75.2288 208.044C74.8372 207.222 74.5318 206.307 74.4691 205.352C74.4143 204.397 74.6336 203.38 75.1818 202.73C75.7457 202.065 76.5758 201.878 77.3433 201.987C79.2934 202.261 80.9146 204.241 81.7291 206.541C82.5592 208.842 82.7081 211.432 82.7316 213.952Z"
            fill="#D27C7B" />
        <path
            d="M82.3087 214.108C83.1858 211.526 86.248 208.631 89.4512 207.77C90.3283 207.535 91.2838 207.387 92.2393 207.496C93.1947 207.606 94.158 208.013 94.6906 208.662C95.2466 209.335 95.2858 210.188 95.043 210.924C94.4243 212.794 92.1923 214.038 89.7801 214.437C87.3758 214.844 84.7991 214.531 82.3087 214.108Z"
            fill="#D27C7B" />
        <path
            d="M80.8128 227.693C78.0874 227.67 74.3751 225.666 72.5503 222.896C72.0491 222.137 71.6105 221.276 71.4226 220.337C71.2268 219.398 71.3129 218.358 71.7593 217.645C72.2292 216.91 73.0202 216.605 73.7956 216.605C75.7613 216.605 77.6488 218.334 78.7844 220.494C79.92 222.654 80.429 225.197 80.8128 227.693Z"
            fill="#D27C7B" />
        <path
            d="M80.4134 227.904C80.9146 225.228 83.546 221.926 86.6004 220.627C87.4384 220.267 88.3625 219.993 89.318 219.97C90.2813 219.946 91.2838 220.212 91.9103 220.783C92.5525 221.37 92.7091 222.208 92.576 222.974C92.2314 224.907 90.1873 226.457 87.8613 227.192C85.5353 227.92 82.9352 227.967 80.4134 227.904Z"
            fill="#D27C7B" />
        <path
            d="M81.4393 240.347C79.3013 240.777 76.0668 239.814 74.195 237.952C73.6781 237.436 73.2004 236.841 72.8949 236.137C72.5895 235.432 72.4798 234.611 72.7226 233.977C72.9654 233.319 73.5371 232.96 74.148 232.826C75.683 232.506 77.4451 233.546 78.6825 235.057C79.9121 236.559 80.7266 238.461 81.4393 240.347Z"
            fill="#D27C7B" />
        <path
            d="M81.1574 240.581C81.1104 238.406 82.6298 235.393 84.7991 233.875C85.3944 233.46 86.0679 233.093 86.8197 232.913C87.5637 232.74 88.4017 232.78 88.9813 233.124C89.5843 233.484 89.8428 234.11 89.8584 234.728C89.9054 236.301 88.5662 237.843 86.8589 238.797C85.1594 239.752 83.1388 240.221 81.1574 240.581Z"
            fill="#D27C7B" />
        <path
            d="M212.608 293.269C213.822 289.411 215.373 285.671 217.229 282.071C219.062 278.519 221.192 275.115 223.581 271.898C225.993 268.651 228.671 265.599 231.569 262.782C234.451 259.988 237.552 257.414 240.849 255.121C244.147 252.828 247.632 250.802 251.266 249.096C251.72 248.884 252.174 248.673 252.628 248.47C252.84 248.376 252.66 248.07 252.456 248.164C248.744 249.816 245.18 251.787 241.805 254.041C238.453 256.279 235.289 258.799 232.344 261.553C229.4 264.308 226.674 267.297 224.207 270.49C221.724 273.698 219.492 277.11 217.566 280.678C215.647 284.223 214.026 287.932 212.734 291.743C212.569 292.221 212.42 292.69 212.264 293.168C212.201 293.387 212.538 293.481 212.608 293.269Z"
            fill="#C38821" />
        <path
            d="M249.966 249.714C250.6 247.061 253.388 243.9 256.497 242.749C257.351 242.436 258.283 242.202 259.246 242.225C260.209 242.248 261.204 242.561 261.799 243.164C262.418 243.782 262.528 244.627 262.355 245.379C261.917 247.296 259.802 248.736 257.437 249.354C255.072 249.98 252.48 249.902 249.966 249.714Z"
            fill="#C38821" />
        <path
            d="M242.11 254.409C240.38 252.304 239.526 248.172 240.489 245.003C240.756 244.127 241.131 243.242 241.727 242.491C242.322 241.74 243.176 241.137 244.013 241.02C244.883 240.903 245.619 241.317 246.12 241.912C247.381 243.422 247.264 245.973 246.332 248.227C245.4 250.496 243.779 252.515 242.11 254.409Z"
            fill="#C38821" />
        <path
            d="M241.688 254.245C244.068 252.914 248.282 252.805 251.242 254.307C252.057 254.722 252.863 255.246 253.498 255.966C254.132 256.686 254.578 257.625 254.539 258.47C254.5 259.347 253.96 259.996 253.286 260.387C251.579 261.366 249.081 260.794 247.021 259.48C244.969 258.173 243.262 256.217 241.688 254.245Z"
            fill="#C38821" />
        <path
            d="M231.733 262.837C229.697 261.021 228.233 257.07 228.695 253.791C228.82 252.891 229.055 251.96 229.533 251.122C230.01 250.285 230.754 249.557 231.569 249.323C232.407 249.072 233.206 249.377 233.785 249.886C235.266 251.185 235.54 253.728 234.96 256.099C234.388 258.47 233.096 260.708 231.733 262.837Z"
            fill="#C38821" />
        <path
            d="M231.295 262.735C233.441 261.053 237.592 260.309 240.748 261.342C241.617 261.624 242.486 262.023 243.23 262.641C243.967 263.259 244.554 264.12 244.648 264.957C244.742 265.826 244.311 266.554 243.7 267.039C242.165 268.268 239.612 268.08 237.372 267.102C235.132 266.116 233.151 264.449 231.295 262.735Z"
            fill="#C38821" />
        <path
            d="M222.602 273.284C220.33 271.773 218.326 268.064 218.318 264.754C218.318 263.846 218.42 262.884 218.772 261.992C219.124 261.1 219.759 260.278 220.534 259.926C221.333 259.566 222.163 259.746 222.805 260.168C224.45 261.248 225.076 263.721 224.841 266.155C224.614 268.581 223.643 270.983 222.602 273.284Z"
            fill="#C38821" />
        <path
            d="M222.147 273.244C224.035 271.28 228.045 269.958 231.311 270.537C232.211 270.693 233.127 270.967 233.95 271.476C234.764 271.985 235.469 272.751 235.673 273.573C235.892 274.418 235.563 275.201 235.031 275.764C233.684 277.196 231.123 277.376 228.773 276.711C226.424 276.054 224.223 274.676 222.147 273.244Z"
            fill="#C38821" />
        <path
            d="M216.18 284.215C214.159 283.402 211.974 280.835 211.434 278.245C211.285 277.533 211.206 276.766 211.34 276.015C211.473 275.263 211.833 274.512 212.381 274.105C212.945 273.69 213.627 273.698 214.198 273.925C215.663 274.496 216.563 276.335 216.775 278.276C216.986 280.209 216.626 282.243 216.18 284.215Z"
            fill="#C38821" />
        <path
            d="M215.819 284.255C216.978 282.408 219.892 280.718 222.539 280.639C223.267 280.616 224.035 280.678 224.755 280.937C225.476 281.203 226.149 281.688 226.447 282.298C226.752 282.924 226.627 283.589 226.306 284.122C225.484 285.46 223.518 286.015 221.568 285.89C219.626 285.757 217.683 285.037 215.819 284.255Z"
            fill="#C38821" />
        <path
            d="M69.9301 305.492C65.9673 306.321 61.9418 306.814 57.9006 306.963C53.8986 307.112 49.8888 306.932 45.9181 306.431C41.9005 305.93 37.9298 305.093 34.0453 303.95C30.1921 302.816 26.425 301.376 22.8068 299.631C19.1885 297.886 15.7113 295.843 12.4376 293.519C12.0304 293.23 11.6231 292.932 11.2237 292.635C11.0436 292.502 10.8556 292.799 11.0436 292.932C14.3016 295.35 17.771 297.487 21.3971 299.318C24.9997 301.133 28.7432 302.659 32.5886 303.872C36.4339 305.085 40.3811 305.985 44.3753 306.572C48.3929 307.159 52.4576 307.425 56.5222 307.347C60.5556 307.276 64.5811 306.869 68.5439 306.118C69.0373 306.024 69.5307 305.93 70.0163 305.821C70.2356 305.789 70.1572 305.445 69.9301 305.492Z"
            fill="#C38821" />
        <path
            d="M13.6202 294.349C10.9966 295.1 6.86928 294.224 4.33964 292.079C3.64262 291.493 2.98476 290.788 2.53052 289.943C2.07628 289.098 1.86483 288.073 2.09194 287.259C2.33473 286.414 3.00825 285.905 3.75226 285.686C5.6397 285.131 7.93439 286.257 9.63387 288.018C11.3412 289.771 12.5473 292.072 13.6202 294.349Z"
            fill="#C38821" />
        <path
            d="M21.5694 298.88C20.5826 301.423 17.4029 304.185 14.1684 304.913C13.2756 305.109 12.3201 305.218 11.3725 305.069C10.4248 304.921 9.47721 304.475 8.96815 303.802C8.44343 303.105 8.44343 302.252 8.70971 301.532C9.40673 299.693 11.6858 298.543 14.1136 298.246C16.5414 297.941 19.1024 298.363 21.5694 298.88Z"
            fill="#C38821" />
        <path
            d="M21.632 299.333C19.2982 297.917 17.1366 294.294 16.9957 290.984C16.9565 290.076 17.0192 289.114 17.3403 288.206C17.6614 287.298 18.2566 286.445 19.0162 286.07C19.7994 285.671 20.6374 285.827 21.2953 286.218C22.9869 287.228 23.7153 289.677 23.5821 292.111C23.449 294.552 22.5797 296.994 21.632 299.333Z"
            fill="#C38821" />
        <path
            d="M34.0139 303.778C33.4265 306.439 30.7011 309.655 27.6154 310.868C26.7696 311.197 25.8376 311.455 24.8743 311.447C23.911 311.439 22.9164 311.15 22.3055 310.563C21.679 309.952 21.5459 309.115 21.7103 308.356C22.1176 306.431 24.2008 304.944 26.5503 304.279C28.8998 303.614 31.4921 303.637 34.0139 303.778Z"
            fill="#C38821" />
        <path
            d="M34.1393 304.209C31.6175 303.168 28.9312 299.913 28.289 296.665C28.1089 295.773 28.0305 294.81 28.2028 293.871C28.3751 292.925 28.845 291.993 29.5342 291.5C30.2469 290.992 31.0927 291.007 31.8133 291.305C33.638 292.04 34.7345 294.357 34.9694 296.782C35.2044 299.208 34.7188 301.759 34.1393 304.209Z"
            fill="#C38821" />
        <path
            d="M47.6019 306.603C47.3983 309.319 45.1506 312.887 42.2685 314.522C41.4775 314.968 40.5926 315.352 39.6371 315.477C38.6816 315.61 37.6557 315.461 36.9665 314.961C36.2616 314.444 36.011 313.63 36.0658 312.863C36.199 310.899 38.0473 309.139 40.2871 308.153C42.5113 307.159 45.0879 306.822 47.6019 306.603Z"
            fill="#C38821" />
        <path
            d="M47.7899 307.018C45.1506 306.337 42.0336 303.497 40.9372 300.366C40.6396 299.506 40.4203 298.567 40.4595 297.612C40.4986 296.649 40.8275 295.663 41.4384 295.077C42.0728 294.474 42.9186 294.372 43.6705 294.56C45.5814 295.037 46.9911 297.166 47.5706 299.545C48.1423 301.916 48.017 304.506 47.7899 307.018Z"
            fill="#C38821" />
        <path
            d="M60.2893 306.822C60.5791 308.982 59.4043 312.143 57.4151 313.888C56.8668 314.366 56.2403 314.812 55.512 315.07C54.7915 315.328 53.9535 315.383 53.3426 315.101C52.7082 314.812 52.3793 314.217 52.2931 313.607C52.0739 312.05 53.2329 310.367 54.8228 309.232C56.3969 308.09 58.3549 307.401 60.2893 306.822Z"
            fill="#C38821" />
        <path
            d="M60.5008 307.112C58.3235 307.01 55.418 305.304 54.0474 303.035C53.6715 302.409 53.3504 301.712 53.2251 300.961C53.0998 300.202 53.1938 299.38 53.5775 298.817C53.977 298.238 54.6191 298.027 55.2379 298.05C56.812 298.105 58.2609 299.545 59.0989 301.305C59.9369 303.066 60.2658 305.116 60.5008 307.112Z"
            fill="#C38821" />
        <path
            d="M84.5172 318.834C76.6307 319.734 68.5719 317.762 61.539 314.084C54.5061 310.406 48.4366 305.077 43.158 299.146C27.0873 281.101 18.0652 256.952 18.3707 232.803C22.31 232.263 26.2807 233.46 29.9851 234.892C44.043 240.323 56.6207 249.541 66.0344 261.31C75.4481 273.08 81.6665 287.369 83.8672 302.276C84.4781 306.462 85.3944 314.695 84.5172 318.834Z"
            fill="#6FCF97" />
        <path
            d="M23.3986 237.897C31.6297 247.616 38.9445 258.055 46.0714 268.588C53.206 279.129 60.1919 289.787 67.8122 299.983C72.0726 305.68 76.5289 311.236 81.2984 316.518C81.7213 316.987 82.5044 316.369 82.0737 315.9C73.5528 306.454 66.0422 296.164 58.8449 285.694C51.6319 275.2 44.7008 264.503 37.2607 254.158C33.1021 248.375 28.779 242.71 24.1739 237.279C23.7589 236.786 22.9835 237.404 23.3986 237.897Z"
            fill="white" />
        <path
            d="M71.2503 303.34C67.1856 302.44 63.1915 301.251 59.2991 299.787C55.4067 298.332 51.6084 296.61 47.951 294.623C45.8834 293.496 43.855 292.291 41.8814 291.007C41.3488 290.663 40.7615 291.461 41.3019 291.813C44.8496 294.114 48.554 296.172 52.3837 297.956C56.2056 299.74 60.1528 301.259 64.1939 302.495C66.4886 303.199 68.8068 303.802 71.1485 304.326C71.4069 304.381 71.6654 304.13 71.6967 303.888C71.7202 303.598 71.5166 303.403 71.2503 303.34Z"
            fill="white" />
        <path
            d="M63.5126 292.095C64.147 288.143 64.0295 284.106 63.4421 280.154C62.8391 276.139 61.774 272.211 60.5522 268.353C59.863 266.162 59.119 263.987 58.3672 261.819C58.1557 261.217 57.2472 261.608 57.4587 262.21C58.7666 265.99 60.0588 269.777 61.0691 273.643C62.0716 277.47 62.7999 281.39 62.933 285.358C63.0114 287.572 62.8782 289.802 62.5258 291.986C62.424 292.619 63.4108 292.729 63.5126 292.095Z"
            fill="white" />
        <path
            d="M50.4493 273.573C45.1864 271.71 40.1819 269.159 35.6004 265.974C34.316 265.082 33.0629 264.143 31.849 263.157C31.3556 262.758 30.7682 263.556 31.2695 263.963C35.6396 267.5 40.4874 270.458 45.6328 272.728C47.0973 273.377 48.5854 273.964 50.0969 274.496C50.6921 274.715 51.0523 273.784 50.4493 273.573Z"
            fill="white" />
        <path
            d="M41.8501 260.371C41.7404 254.847 40.4639 249.377 38.1692 244.353C37.5192 242.937 36.7908 241.567 35.9842 240.237C35.6552 239.689 34.8094 240.214 35.1383 240.761C37.9264 245.339 39.7669 250.496 40.503 255.809C40.7145 257.335 40.832 258.861 40.8633 260.403C40.8711 261.044 41.8658 261.013 41.8501 260.371Z"
            fill="white" />
        <g clip-path="url(#clip1_1_630)">
            <rect width="134" height="218" transform="translate(65 119)" fill="white" />
            <path
                d="M65.1342 326.874C65.1342 326.874 63.818 333.909 75.4105 334.457C87.003 335.005 110.869 335.547 110.869 335.547L109.367 320.387L72.2104 317.792L66.2697 322.165L65.1342 326.874Z"
                fill="#E0E0E0" />
            <path
                d="M190.742 337H80.1074C75.5447 337 71.8492 333.294 71.8492 328.729V127.27C71.8492 122.701 75.5499 119 80.1074 119H190.742C195.304 119 199 122.706 199 127.27V328.724C199 333.299 195.304 337 190.742 337Z"
                fill="#223263" />
            <path
                d="M191.996 328.714H81.5423C80.0558 328.714 78.848 327.51 78.848 326.021V128.997H191.991V328.714H191.996Z"
                fill="white" />
            <path
                d="M146.54 124.236H122.343C121.543 124.236 120.898 123.59 120.898 122.789C120.898 121.988 121.543 121.342 122.343 121.342H146.54C147.34 121.342 147.985 121.988 147.985 122.789C147.98 123.585 147.335 124.236 146.54 124.236Z"
                fill="#455A64" />
            <path
                d="M94.2806 150.335V151.756H94.1619C94.0741 151.384 93.909 151.1 93.6664 150.903C93.4238 150.707 93.1503 150.609 92.8457 150.609C92.5877 150.609 92.3554 150.681 92.1386 150.831C91.927 150.981 91.767 151.172 91.6689 151.41C91.5399 151.715 91.478 152.056 91.478 152.428C91.478 152.795 91.5244 153.131 91.6173 153.431C91.7102 153.731 91.8548 153.964 92.0509 154.113C92.247 154.269 92.5051 154.346 92.8199 154.346C93.078 154.346 93.3154 154.289 93.527 154.175C93.7438 154.062 93.9658 153.865 94.2083 153.591V153.948C93.9761 154.186 93.7387 154.362 93.4909 154.47C93.2432 154.579 92.949 154.63 92.6186 154.63C92.1799 154.63 91.7928 154.542 91.4522 154.367C91.1115 154.191 90.8483 153.938 90.6676 153.612C90.4818 153.281 90.3889 152.935 90.3889 152.563C90.3889 152.17 90.4921 151.798 90.6934 151.446C90.8947 151.095 91.1734 150.821 91.5244 150.629C91.8702 150.433 92.2419 150.34 92.6341 150.34C92.9232 150.34 93.2277 150.402 93.5477 150.526C93.7335 150.598 93.8522 150.635 93.9038 150.635C93.9658 150.635 94.0225 150.609 94.0741 150.562C94.1258 150.516 94.1516 150.438 94.1671 150.335H94.2806Z"
                fill="#223263" />
            <path
                d="M95.9839 150.428V152.066C96.1387 151.901 96.2832 151.787 96.4123 151.72C96.5413 151.653 96.6755 151.617 96.8148 151.617C96.9903 151.617 97.1452 151.668 97.269 151.767C97.3929 151.87 97.4807 151.984 97.522 152.123C97.5632 152.258 97.5839 152.49 97.5839 152.811V153.917C97.5839 154.134 97.6045 154.269 97.6458 154.32C97.6871 154.372 97.7697 154.408 97.8884 154.424V154.532H96.4535V154.424C96.5568 154.408 96.629 154.367 96.6806 154.305C96.7168 154.253 96.7374 154.124 96.7374 153.922V152.661C96.7374 152.428 96.7271 152.278 96.7116 152.222C96.691 152.16 96.6652 152.113 96.6187 152.082C96.5774 152.051 96.5258 152.03 96.4742 152.03C96.3916 152.03 96.3142 152.056 96.2368 152.113C96.1593 152.17 96.0768 152.268 95.989 152.408V153.927C95.989 154.129 96.0045 154.253 96.0355 154.305C96.0716 154.372 96.1542 154.413 96.2729 154.434V154.542H94.8329V154.434C94.9516 154.424 95.0342 154.382 95.0858 154.32C95.1219 154.274 95.1374 154.144 95.1374 153.927V151.048C95.1374 150.836 95.1167 150.702 95.0806 150.65C95.0393 150.598 94.9567 150.562 94.8329 150.547V150.428H95.9839Z"
                fill="#223263" />
            <path
                d="M99.8342 154.113C99.4884 154.418 99.1788 154.568 98.9052 154.568C98.7452 154.568 98.611 154.517 98.5026 154.408C98.3942 154.3 98.3426 154.17 98.3426 154.01C98.3426 153.793 98.4355 153.602 98.6213 153.426C98.8071 153.255 99.2097 153.023 99.8342 152.738V152.454C99.8342 152.242 99.8239 152.108 99.7981 152.051C99.7775 151.994 99.731 151.948 99.6691 151.906C99.6071 151.865 99.5297 151.844 99.4523 151.844C99.3233 151.844 99.2149 151.875 99.1271 151.932C99.0755 151.968 99.0497 152.01 99.0497 152.061C99.0497 152.103 99.0755 152.154 99.1323 152.216C99.2097 152.304 99.2458 152.387 99.2458 152.47C99.2458 152.568 99.2097 152.651 99.1375 152.723C99.0652 152.79 98.9671 152.826 98.8484 152.826C98.7194 152.826 98.6162 152.79 98.5284 152.713C98.4407 152.635 98.3994 152.547 98.3994 152.444C98.3994 152.299 98.4562 152.16 98.5697 152.025C98.6833 151.891 98.8433 151.793 99.0497 151.72C99.2562 151.648 99.4678 151.617 99.6897 151.617C99.9581 151.617 100.17 151.674 100.325 151.787C100.479 151.901 100.583 152.025 100.629 152.16C100.655 152.242 100.67 152.439 100.67 152.744V153.845C100.67 153.974 100.676 154.057 100.686 154.088C100.696 154.119 100.712 154.144 100.732 154.16C100.753 154.175 100.774 154.186 100.799 154.186C100.851 154.186 100.908 154.15 100.959 154.072L101.052 154.144C100.949 154.294 100.846 154.403 100.737 154.47C100.629 154.537 100.505 154.573 100.371 154.573C100.211 154.573 100.082 154.537 99.9943 154.46C99.9065 154.382 99.8549 154.269 99.8342 154.113ZM99.8342 153.896V152.95C99.5917 153.095 99.411 153.245 99.2923 153.41C99.2149 153.519 99.1736 153.628 99.1736 153.741C99.1736 153.834 99.2046 153.917 99.2717 153.984C99.3233 154.041 99.3904 154.067 99.4833 154.067C99.5813 154.067 99.7001 154.01 99.8342 153.896Z"
                fill="#223263" />
            <path
                d="M102.461 154.248V155.302C102.461 155.447 102.472 155.545 102.498 155.597C102.518 155.649 102.554 155.69 102.606 155.711C102.652 155.737 102.75 155.747 102.89 155.747V155.861H101.279V155.747C101.403 155.742 101.496 155.706 101.558 155.638C101.599 155.592 101.62 155.473 101.62 155.276V152.289C101.62 152.087 101.599 151.963 101.553 151.906C101.507 151.849 101.419 151.818 101.285 151.813V151.699H102.472V152.072C102.57 151.927 102.673 151.824 102.776 151.756C102.926 151.663 103.086 151.612 103.256 151.612C103.463 151.612 103.654 151.679 103.824 151.808C103.994 151.937 104.123 152.118 104.211 152.351C104.299 152.583 104.345 152.832 104.345 153.095C104.345 153.379 104.299 153.643 104.206 153.881C104.113 154.119 103.979 154.3 103.809 154.424C103.633 154.548 103.442 154.61 103.225 154.61C103.07 154.61 102.926 154.573 102.792 154.506C102.678 154.465 102.575 154.372 102.461 154.248ZM102.461 153.943C102.637 154.191 102.823 154.31 103.019 154.31C103.127 154.31 103.215 154.253 103.287 154.139C103.39 153.969 103.442 153.648 103.442 153.167C103.442 152.676 103.385 152.346 103.272 152.165C103.194 152.046 103.091 151.984 102.962 151.984C102.761 151.984 102.59 152.134 102.461 152.428V153.943Z"
                fill="#223263" />
            <path
                d="M105.935 150.666V151.699H106.606V151.999H105.935V153.746C105.935 153.912 105.94 154.015 105.956 154.062C105.971 154.108 105.997 154.15 106.038 154.175C106.074 154.206 106.11 154.217 106.141 154.217C106.27 154.217 106.394 154.119 106.513 153.917L106.606 153.984C106.441 154.372 106.178 154.563 105.811 154.563C105.63 154.563 105.481 154.511 105.357 154.413C105.233 154.315 105.156 154.201 105.12 154.077C105.099 154.01 105.089 153.824 105.089 153.519V151.989H104.722V151.88C104.975 151.699 105.192 151.513 105.372 151.312C105.553 151.115 105.708 150.893 105.842 150.65H105.935V150.666Z"
                fill="#223263" />
            <path
                d="M109.269 153.018H107.716C107.736 153.395 107.834 153.69 108.015 153.907C108.154 154.072 108.32 154.16 108.516 154.16C108.634 154.16 108.748 154.124 108.846 154.057C108.944 153.989 109.053 153.865 109.166 153.69L109.269 153.757C109.114 154.072 108.949 154.289 108.763 154.424C108.578 154.553 108.361 154.62 108.118 154.62C107.7 154.62 107.38 154.46 107.163 154.134C106.988 153.876 106.905 153.55 106.905 153.162C106.905 152.692 107.034 152.315 107.287 152.035C107.54 151.756 107.84 151.617 108.185 151.617C108.469 151.617 108.722 151.736 108.929 151.968C109.135 152.201 109.254 152.552 109.269 153.018ZM108.526 152.816C108.526 152.49 108.511 152.268 108.474 152.149C108.438 152.03 108.387 151.937 108.309 151.875C108.268 151.839 108.211 151.818 108.139 151.818C108.036 151.818 107.948 151.87 107.881 151.973C107.762 152.154 107.7 152.397 107.7 152.713V152.821H108.526V152.816Z"
                fill="#223263" />
            <path
                d="M110.797 151.699V152.34C110.983 152.046 111.148 151.855 111.293 151.756C111.432 151.658 111.571 151.612 111.7 151.612C111.814 151.612 111.902 151.648 111.969 151.715C112.036 151.782 112.072 151.886 112.072 152.01C112.072 152.144 112.041 152.247 111.974 152.325C111.907 152.397 111.829 152.439 111.736 152.439C111.628 152.439 111.535 152.402 111.458 152.335C111.38 152.268 111.334 152.227 111.318 152.222C111.298 152.211 111.277 152.201 111.251 152.201C111.194 152.201 111.138 152.222 111.086 152.268C111.004 152.335 110.942 152.433 110.9 152.563C110.838 152.759 110.802 152.976 110.802 153.209V153.86L110.807 154.031C110.807 154.144 110.813 154.222 110.828 154.253C110.854 154.31 110.89 154.346 110.936 154.372C110.983 154.398 111.065 154.413 111.179 154.418V154.527H109.651V154.418C109.775 154.408 109.858 154.377 109.899 154.315C109.94 154.258 109.966 154.103 109.966 153.86V152.294C109.966 152.134 109.956 152.03 109.94 151.984C109.92 151.927 109.889 151.886 109.853 151.86C109.816 151.834 109.744 151.813 109.651 151.803V151.689H110.797V151.699Z"
                fill="#223263" />
            <path
                d="M115.618 150.34V153.7C115.618 153.953 115.628 154.113 115.649 154.181C115.669 154.248 115.716 154.31 115.788 154.351C115.86 154.398 115.974 154.418 116.129 154.418H116.222V154.532H114.064V154.418H114.173C114.348 154.418 114.472 154.398 114.549 154.356C114.622 154.315 114.673 154.258 114.699 154.191C114.725 154.119 114.74 153.953 114.74 153.695V151.565C114.74 151.374 114.73 151.255 114.715 151.208C114.694 151.162 114.663 151.121 114.611 151.09C114.56 151.059 114.503 151.038 114.441 151.038C114.338 151.038 114.214 151.069 114.064 151.136L114.007 151.028L115.515 150.335H115.618V150.34Z"
                fill="#223263" />
            <path
                d="M99.6587 176.919V180.243H99.3336C99.1426 179.478 98.9258 178.925 98.6935 178.589C98.4561 178.253 98.1361 177.984 97.7284 177.788C97.5013 177.679 97.0987 177.622 96.5258 177.622H95.6122V187.092C95.6122 187.717 95.6483 188.11 95.7154 188.271C95.7825 188.426 95.9219 188.565 96.1232 188.684C96.3245 188.803 96.6032 188.86 96.949 188.86H97.3567V189.196H90.936V188.86H91.3437C91.6999 188.86 91.9837 188.798 92.2005 188.669C92.3554 188.586 92.4792 188.441 92.5721 188.234C92.6392 188.09 92.6702 187.707 92.6702 187.092V177.622H91.7876C90.9618 177.622 90.3631 177.798 89.9863 178.15C89.4598 178.641 89.1295 179.333 88.9901 180.243H88.6443V176.919H99.6587Z"
                fill="#223263" />
            <path
                d="M178.896 163.273C178.896 163.345 174.256 163.407 168.532 163.407C162.808 163.407 158.168 163.345 158.168 163.273C158.168 163.201 162.808 163.139 168.532 163.139C174.256 163.139 178.896 163.201 178.896 163.273Z"
                fill="#223263" />
            <path
                d="M178.659 179.411C178.659 179.483 161.745 179.545 140.883 179.545C120.015 179.545 103.101 179.483 103.101 179.411C103.101 179.338 120.015 179.276 140.883 179.276C161.745 179.276 178.659 179.338 178.659 179.411Z"
                fill="#223263" />
            <path
                d="M178.659 184.616C178.659 184.688 161.745 184.75 140.883 184.75C120.015 184.75 103.101 184.688 103.101 184.616C103.101 184.544 120.015 184.482 140.883 184.482C161.745 184.482 178.659 184.544 178.659 184.616Z"
                fill="#223263" />
            <path
                d="M178.659 189.821C178.659 189.894 161.745 189.956 140.883 189.956C120.015 189.956 103.101 189.894 103.101 189.821C103.101 189.749 120.015 189.687 140.883 189.687C161.745 189.687 178.659 189.749 178.659 189.821Z"
                fill="#223263" />
            <path
                d="M178.659 195.027C178.659 195.099 158.359 195.161 133.321 195.161C108.278 195.161 87.9785 195.099 87.9785 195.027C87.9785 194.954 108.273 194.892 133.321 194.892C158.359 194.892 178.659 194.949 178.659 195.027Z"
                fill="#223263" />
            <path
                d="M178.659 200.227C178.659 200.299 158.359 200.361 133.321 200.361C108.278 200.361 87.9785 200.299 87.9785 200.227C87.9785 200.154 108.273 200.092 133.321 200.092C158.359 200.092 178.659 200.154 178.659 200.227Z"
                fill="#223263" />
            <path
                d="M139.045 205.432C139.045 205.504 127.613 205.566 113.512 205.566C99.4058 205.566 87.9785 205.504 87.9785 205.432C87.9785 205.36 99.4058 205.297 113.512 205.297C127.613 205.297 139.045 205.36 139.045 205.432Z"
                fill="#223263" />
            <path
                d="M178.659 210.637C178.659 210.709 158.359 210.772 133.321 210.772C108.278 210.772 87.9785 210.709 87.9785 210.637C87.9785 210.565 108.273 210.503 133.321 210.503C158.359 210.503 178.659 210.565 178.659 210.637Z"
                fill="#223263" />
            <path
                d="M178.659 215.842C178.659 215.915 158.359 215.977 133.321 215.977C108.278 215.977 87.9785 215.915 87.9785 215.842C87.9785 215.77 108.273 215.708 133.321 215.708C158.359 215.708 178.659 215.765 178.659 215.842Z"
                fill="#223263" />
            <path
                d="M178.659 221.048C178.659 221.12 158.359 221.182 133.321 221.182C108.278 221.182 87.9785 221.12 87.9785 221.048C87.9785 220.975 108.273 220.913 133.321 220.913C158.359 220.908 178.659 220.97 178.659 221.048Z"
                fill="#223263" />
            <path
                d="M178.659 226.248C178.659 226.32 158.359 226.382 133.321 226.382C108.278 226.382 87.9785 226.32 87.9785 226.248C87.9785 226.175 108.273 226.113 133.321 226.113C158.359 226.113 178.659 226.175 178.659 226.248Z"
                fill="#223263" />
            <path
                d="M178.659 231.453C178.659 231.525 158.359 231.587 133.321 231.587C108.278 231.587 87.9785 231.525 87.9785 231.453C87.9785 231.381 108.273 231.319 133.321 231.319C158.359 231.319 178.659 231.381 178.659 231.453Z"
                fill="#223263" />
            <path
                d="M103.101 236.658C103.101 236.731 99.7155 236.793 95.54 236.793C91.3644 236.793 87.9785 236.731 87.9785 236.658C87.9785 236.586 91.3644 236.524 95.54 236.524C99.7155 236.524 103.101 236.581 103.101 236.658Z"
                fill="#223263" />
            <path
                d="M178.659 241.863C178.659 241.936 158.359 241.998 133.321 241.998C108.278 241.998 87.9785 241.936 87.9785 241.863C87.9785 241.791 108.273 241.729 133.321 241.729C158.359 241.729 178.659 241.786 178.659 241.863Z"
                fill="#223263" />
            <path
                d="M178.659 247.063C178.659 247.136 158.359 247.198 133.321 247.198C108.278 247.198 87.9785 247.136 87.9785 247.063C87.9785 246.991 108.273 246.929 133.321 246.929C158.359 246.929 178.659 246.991 178.659 247.063Z"
                fill="#223263" />
            <path
                d="M178.659 252.269C178.659 252.341 158.359 252.403 133.321 252.403C108.278 252.403 87.9785 252.341 87.9785 252.269C87.9785 252.196 108.273 252.134 133.321 252.134C158.359 252.134 178.659 252.196 178.659 252.269Z"
                fill="#223263" />
            <path
                d="M157.59 257.474C157.59 257.546 142.008 257.608 122.787 257.608C103.561 257.608 87.9785 257.546 87.9785 257.474C87.9785 257.402 103.561 257.34 122.787 257.34C142.008 257.34 157.59 257.402 157.59 257.474Z"
                fill="#223263" />
            <path
                d="M178.659 262.679C178.659 262.752 158.359 262.814 133.321 262.814C108.278 262.814 87.9785 262.752 87.9785 262.679C87.9785 262.607 108.273 262.545 133.321 262.545C158.359 262.545 178.659 262.602 178.659 262.679Z"
                fill="#223263" />
            <path
                d="M178.659 267.879C178.659 267.952 158.359 268.014 133.321 268.014C108.278 268.014 87.9785 267.952 87.9785 267.879C87.9785 267.807 108.273 267.745 133.321 267.745C158.359 267.745 178.659 267.807 178.659 267.879Z"
                fill="#223263" />
            <path
                d="M166.452 273.085C166.452 273.157 148.883 273.219 127.215 273.219C105.543 273.219 87.9785 273.157 87.9785 273.085C87.9785 273.012 105.543 272.95 127.215 272.95C148.883 272.95 166.452 273.012 166.452 273.085Z"
                fill="#223263" />
            <path
                d="M178.659 278.29C178.659 278.362 158.359 278.424 133.321 278.424C108.278 278.424 87.9785 278.362 87.9785 278.29C87.9785 278.217 108.273 278.155 133.321 278.155C158.359 278.155 178.659 278.217 178.659 278.29Z"
                fill="#223263" />
            <path
                d="M178.659 288.7C178.659 288.773 158.359 288.835 133.321 288.835C108.278 288.835 87.9785 288.773 87.9785 288.7C87.9785 288.628 108.273 288.566 133.321 288.566C158.359 288.566 178.659 288.623 178.659 288.7Z"
                fill="#223263" />
            <path
                d="M178.659 293.9C178.659 293.973 158.359 294.035 133.321 294.035C108.278 294.035 87.9785 293.973 87.9785 293.9C87.9785 293.828 108.273 293.766 133.321 293.766C158.359 293.766 178.659 293.828 178.659 293.9Z"
                fill="#223263" />
            <path
                d="M178.659 299.106C178.659 299.178 158.359 299.24 133.321 299.24C108.278 299.24 87.9785 299.178 87.9785 299.106C87.9785 299.033 108.273 298.971 133.321 298.971C158.359 298.971 178.659 299.033 178.659 299.106Z"
                fill="#223263" />
            <path
                d="M136.16 314.463L135.871 315.254H133.45V315.14C134.163 314.489 134.663 313.956 134.952 313.548C135.241 313.134 135.386 312.757 135.386 312.416C135.386 312.157 135.308 311.94 135.148 311.775C134.988 311.61 134.797 311.522 134.576 311.522C134.374 311.522 134.194 311.579 134.034 311.697C133.874 311.816 133.755 311.987 133.677 312.214H133.564C133.616 311.842 133.745 311.553 133.951 311.356C134.157 311.155 134.421 311.056 134.73 311.056C135.061 311.056 135.339 311.165 135.561 311.377C135.783 311.589 135.897 311.842 135.897 312.132C135.897 312.338 135.85 312.545 135.752 312.757C135.603 313.083 135.36 313.429 135.025 313.796C134.524 314.344 134.209 314.675 134.085 314.789H135.154C135.37 314.789 135.525 314.778 135.613 314.763C135.701 314.747 135.778 314.716 135.85 314.664C135.923 314.613 135.985 314.546 136.036 314.453H136.16V314.463Z"
                fill="#223263" />
            <path
                d="M136.64 313.222C136.64 312.752 136.712 312.349 136.852 312.013C136.991 311.677 137.182 311.423 137.414 311.258C137.595 311.129 137.781 311.062 137.977 311.062C138.292 311.062 138.576 311.222 138.823 311.542C139.138 311.94 139.293 312.478 139.293 313.16C139.293 313.636 139.226 314.044 139.087 314.375C138.947 314.706 138.777 314.949 138.56 315.099C138.349 315.249 138.142 315.326 137.946 315.326C137.554 315.326 137.228 315.094 136.97 314.633C136.748 314.241 136.64 313.77 136.64 313.222ZM137.234 313.3C137.234 313.863 137.301 314.329 137.44 314.685C137.554 314.985 137.724 315.135 137.956 315.135C138.065 315.135 138.178 315.088 138.297 314.99C138.416 314.892 138.503 314.727 138.565 314.499C138.658 314.153 138.705 313.662 138.705 313.031C138.705 312.561 138.658 312.173 138.56 311.858C138.488 311.625 138.395 311.46 138.281 311.367C138.199 311.299 138.101 311.268 137.982 311.268C137.843 311.268 137.724 311.33 137.616 311.454C137.471 311.62 137.373 311.884 137.321 312.245C137.259 312.597 137.234 312.948 137.234 313.3Z"
                fill="#223263" />
            <path
                d="M79.7512 328.213C75.9112 321.653 67.7923 321.581 65.1342 326.879V133.69C65.1342 130.119 67.7097 126.976 71.2453 126.521C73.5008 126.232 75.555 127.1 79.039 129.116L79.7512 328.213Z"
                fill="white" />
            <path
                d="M79.7513 328.213C79.7461 326.791 79.3796 240.499 78.9048 129.121L78.9719 129.235C77.919 128.63 76.8402 128.02 75.6996 127.508C74.5641 127.002 73.346 126.599 72.0814 126.604C70.822 126.614 69.5523 126.981 68.4839 127.684C67.4104 128.377 66.5433 129.395 65.9807 130.553C65.6968 131.163 65.4903 131.814 65.3716 132.476C65.2529 133.137 65.2684 133.815 65.2684 134.502C65.2684 135.872 65.2684 137.236 65.2684 138.601C65.2684 141.325 65.2684 144.039 65.2684 146.737C65.2684 152.134 65.2684 157.473 65.2684 162.751C65.2684 173.306 65.2632 183.603 65.2632 193.595C65.2581 213.573 65.2529 232.301 65.2477 249.307C65.2219 283.314 65.2013 310.436 65.191 326.879L65.0877 326.853C65.7432 325.54 66.7807 324.527 67.9265 323.922C69.0723 323.307 70.2904 323.075 71.4053 323.059C71.9679 323.028 72.4995 323.126 73.0105 323.188C73.2634 323.235 73.506 323.312 73.7434 323.369C73.986 323.426 74.2182 323.488 74.4299 323.586C74.8686 323.757 75.2918 323.917 75.6531 324.145C75.8389 324.248 76.0196 324.346 76.2002 324.444C76.3705 324.553 76.5254 324.677 76.6802 324.786C76.9899 325.008 77.2841 325.215 77.5164 325.452C77.759 325.685 77.9964 325.887 78.1925 326.098C78.5538 326.548 78.8996 326.895 79.1061 327.22C79.519 327.851 79.6996 328.135 79.7513 328.213C79.6996 328.135 79.5138 327.861 79.0906 327.246C78.8738 326.92 78.5332 326.574 78.1667 326.135C77.9706 325.928 77.728 325.726 77.4854 325.499C77.2531 325.261 76.9589 325.054 76.6493 324.837C76.4944 324.729 76.3396 324.61 76.1692 324.501C75.9938 324.403 75.8131 324.305 75.6273 324.207C75.266 323.984 74.8479 323.829 74.4092 323.659C74.1976 323.56 73.9653 323.504 73.7227 323.447C73.4853 323.39 73.2427 323.318 72.995 323.271C72.4892 323.209 71.9576 323.116 71.4053 323.152C70.3007 323.168 69.0981 323.405 67.9678 324.015C66.8426 324.62 65.8258 325.618 65.1806 326.915L65.0774 327.122V326.895C65.0671 310.447 65.0465 283.33 65.0206 249.322C65.0155 232.316 65.0103 213.589 65.0052 193.61C65.0052 183.624 65 173.322 65 162.766C65 157.473 65 152.134 65 146.737C65 144.039 65 141.325 65 138.601C65 137.236 65 135.872 65 134.502C65.0052 133.825 64.9845 133.122 65.1084 132.429C65.2323 131.742 65.4439 131.07 65.7381 130.434C66.3213 129.23 67.2194 128.175 68.3394 127.457C69.4491 126.723 70.7704 126.345 72.0814 126.33C73.4027 126.33 74.657 126.748 75.808 127.26C76.9641 127.777 78.048 128.392 79.1061 128.997L79.1732 129.033V129.111C79.4983 240.499 79.7461 326.791 79.7513 328.213Z"
                fill="#223263" />
            <path
                d="M184.218 236.917C184.14 236.917 184.063 236.88 184.011 236.813C183.924 236.7 183.949 236.539 184.063 236.451L186.995 234.224L184.084 232.373C183.965 232.295 183.929 232.135 184.006 232.016C184.084 231.897 184.244 231.861 184.362 231.939L187.588 233.986C187.66 234.032 187.707 234.11 187.707 234.193C187.712 234.275 187.671 234.358 187.604 234.41L184.378 236.86C184.326 236.896 184.269 236.917 184.218 236.917Z"
                fill="#E0E0E0" />
            <g opacity="0.3">
                <g opacity="0.3">
                    <path opacity="0.3"
                        d="M163.288 128.997V152.837C163.288 153.333 163.887 153.581 164.238 153.23L169.972 147.487C170.189 147.27 170.545 147.27 170.762 147.487L176.496 153.23C176.847 153.581 177.446 153.333 177.446 152.837V128.997H163.288Z"
                        fill="black" />
                </g>
            </g>
            <path
                d="M162.086 128.997V150.635C162.086 151.131 162.684 151.379 163.035 151.028L168.77 145.285C168.987 145.068 169.343 145.068 169.559 145.285L175.294 151.028C175.645 151.379 176.243 151.131 176.243 150.635V128.997H162.086Z"
                fill="#223263" />
        </g>
        <path
            d="M186.98 131.505C187.124 128.956 188.696 127.384 190.892 126.078C193.089 124.771 195.939 124.642 198.25 125.748C199.793 126.48 201.143 127.736 202.837 127.958C205.629 128.317 208.271 125.733 211.013 126.379C212.635 126.76 213.87 128.382 213.805 130.047C213.741 131.713 212.391 133.235 210.747 133.5C212.578 133.766 213.612 136.077 212.937 137.8C212.262 139.516 210.345 140.513 208.493 140.556C206.649 140.6 204.868 139.846 203.275 138.913C201.674 137.987 200.188 136.867 198.523 136.07C196.857 135.273 194.941 134.807 193.153 135.28C190.734 135.926 189.026 138.202 188.394 140.628C187.762 143.047 188.035 145.603 188.408 148.079C188.782 150.549 189.263 153.047 189.026 155.538C188.997 155.832 188.932 156.162 188.674 156.306C188.301 156.514 187.877 156.162 187.605 155.839C184.518 152.178 182.156 147.907 180.706 143.342C179.866 140.693 179.4 138.109 180.412 135.517C181.424 132.919 184.834 130.449 186.98 131.505Z"
            fill="#223263" />
        <path
            d="M184.625 143.837L188.71 169.047C189.471 173.756 192.529 178.3 199.923 176.757C206.232 174.933 205.766 170.397 204.94 164.798C204.94 164.798 204.962 165.013 204.94 164.798C204.94 164.798 211.882 162.996 211.257 155.932C210.956 152.523 209.764 145.545 208.615 139.25C207.381 132.488 201.15 127.815 194.309 128.497L193.627 128.569C186.341 129.739 183.262 136.58 184.625 143.837Z"
            fill="#F9BE9D" />
        <path
            d="M204.94 164.798C204.94 164.798 200.526 165.508 195.494 163.01C195.494 163.01 198.264 168.25 205.227 166.908L204.94 164.798Z"
            fill="#F3986E" />
        <path
            d="M207.237 146.313C207.309 146.845 206.921 147.34 206.369 147.426C205.816 147.512 205.313 147.153 205.242 146.622C205.17 146.091 205.558 145.596 206.11 145.509C206.656 145.423 207.165 145.782 207.237 146.313Z"
            fill="#223263" />
        <path
            d="M207.453 142.868C207.338 143.011 206.519 142.523 205.436 142.638C204.352 142.731 203.612 143.37 203.483 143.248C203.418 143.198 203.526 142.947 203.842 142.66C204.158 142.373 204.71 142.071 205.392 142.006C206.067 141.942 206.663 142.136 207.015 142.358C207.374 142.574 207.51 142.803 207.453 142.868Z"
            fill="#223263" />
        <path
            d="M197.683 147.283C197.755 147.814 197.367 148.309 196.814 148.395C196.262 148.481 195.759 148.122 195.687 147.591C195.616 147.06 196.003 146.565 196.556 146.479C197.101 146.392 197.604 146.751 197.683 147.283Z"
            fill="#223263" />
        <path
            d="M196.829 144.138C196.714 144.282 195.895 143.794 194.812 143.909C193.728 144.002 192.988 144.641 192.859 144.519C192.794 144.469 192.895 144.217 193.218 143.93C193.534 143.643 194.087 143.342 194.761 143.277C195.436 143.212 196.032 143.406 196.384 143.629C196.743 143.844 196.879 144.074 196.829 144.138Z"
            fill="#223263" />
        <path
            d="M201.566 151.776C201.552 151.712 202.22 151.532 203.296 151.281C203.569 151.223 203.827 151.144 203.856 150.951C203.899 150.742 203.756 150.455 203.591 150.147C203.26 149.501 202.923 148.826 202.564 148.122C201.128 145.237 200.059 142.854 200.174 142.796C200.289 142.739 201.552 145.029 202.988 147.914C203.332 148.625 203.67 149.307 203.985 149.953C204.122 150.254 204.337 150.592 204.237 151.022C204.186 151.238 203.993 151.41 203.82 151.475C203.648 151.546 203.49 151.568 203.354 151.59C202.255 151.762 201.573 151.834 201.566 151.776Z"
            fill="#223263" />
        <path
            d="M196.678 139.867C196.599 140.176 195.508 140.14 194.252 140.42C192.988 140.678 192.005 141.152 191.811 140.901C191.725 140.779 191.876 140.485 192.256 140.162C192.637 139.839 193.268 139.501 194.022 139.336C194.776 139.178 195.486 139.228 195.967 139.372C196.455 139.516 196.707 139.717 196.678 139.867Z"
            fill="#223263" />
        <path
            d="M206.742 139.767C206.577 140.032 205.802 139.853 204.904 139.932C204 139.982 203.26 140.262 203.067 140.025C202.98 139.91 203.074 139.652 203.382 139.386C203.684 139.121 204.215 138.877 204.832 138.834C205.45 138.791 206.01 138.963 206.347 139.178C206.677 139.401 206.814 139.645 206.742 139.767Z"
            fill="#223263" />
        <path
            d="M185.731 148.998C185.609 148.955 180.742 148.051 181.381 152.853C182.02 157.655 186.707 156.026 186.7 155.882C186.686 155.746 185.731 148.998 185.731 148.998Z"
            fill="#F9BE9D" />
        <path
            d="M184.991 154.26C184.97 154.246 184.913 154.332 184.783 154.411C184.654 154.49 184.424 154.569 184.159 154.504C183.628 154.382 183.089 153.635 182.953 152.774C182.881 152.336 182.917 151.913 183.025 151.546C183.125 151.173 183.319 150.9 183.57 150.821C183.814 150.728 184.015 150.857 184.094 150.987C184.173 151.116 184.159 151.209 184.188 151.216C184.202 151.223 184.281 151.123 184.216 150.929C184.18 150.836 184.116 150.728 183.987 150.656C183.857 150.577 183.685 150.556 183.506 150.599C183.139 150.671 182.852 151.058 182.73 151.46C182.587 151.862 182.536 152.35 182.615 152.839C182.773 153.8 183.391 154.64 184.109 154.748C184.46 154.791 184.726 154.655 184.855 154.518C184.999 154.382 185.006 154.267 184.991 154.26Z"
            fill="#F3986E" />
        <path
            d="M208.041 132.682C207.273 131.361 206.046 130.363 204.739 129.574C201.925 127.865 198.587 126.954 195.307 127.233C192.026 127.513 188.825 129.021 186.678 131.526C184.963 133.529 183.972 136.092 183.656 138.712C183.34 141.332 183.671 143.995 184.396 146.536C184.712 147.649 185.142 148.797 186.018 149.544C186.571 150.01 187.454 150.269 187.978 149.773C188.286 149.479 188.365 149.027 188.43 148.603C188.983 144.792 189.499 140.7 187.777 137.254C188.573 135.962 189.535 134.735 190.792 133.873C192.041 133.012 193.62 132.531 195.113 132.833C197.331 133.278 198.86 135.237 200.719 136.515C203.375 138.346 206.943 138.783 209.965 137.642L208.041 132.682Z"
            fill="#223263" />
        <path
            d="M202.521 154.698C202.442 155.15 202.363 155.609 202.162 156.019C201.961 156.428 201.617 156.794 201.172 156.909C200.698 157.031 200.181 156.844 199.829 156.507C199.477 156.162 199.284 155.688 199.205 155.207C199.133 154.77 199.226 154.217 199.643 154.073C199.815 154.016 200.009 154.045 200.188 154.08C201.006 154.231 201.825 154.375 202.636 154.525"
            fill="#F3986E" />
        <path
            d="M202.004 156.751C201.976 156.679 201.523 156.988 200.77 156.851C200.403 156.787 199.98 156.593 199.686 156.212C199.391 155.839 199.233 155.279 199.348 154.741C199.37 154.604 199.42 154.475 199.477 154.36C199.549 154.246 199.535 154.253 199.635 154.253C199.736 154.26 199.894 154.296 200.03 154.317C200.167 154.339 200.303 154.368 200.432 154.389C200.956 154.482 201.43 154.561 201.832 154.626C202.629 154.748 203.131 154.798 203.138 154.741C203.153 154.683 202.672 154.54 201.889 154.339C201.495 154.238 201.028 154.131 200.511 154.016C200.382 153.987 200.246 153.958 200.109 153.93C199.966 153.901 199.851 153.865 199.664 153.844C199.571 153.836 199.442 153.851 199.334 153.922C199.226 153.994 199.169 154.095 199.126 154.174C199.054 154.332 198.989 154.49 198.961 154.655C198.824 155.329 199.032 155.997 199.406 156.449C199.793 156.909 200.324 157.102 200.748 157.138C201.179 157.181 201.523 157.074 201.731 156.973C201.925 156.866 202.019 156.765 202.004 156.751Z"
            fill="#223263" />
        <path
            d="M212.628 127.356C212.635 127.356 212.671 127.463 212.721 127.671C212.757 127.887 212.808 128.203 212.75 128.619C212.671 129.43 212.197 130.643 211.006 131.569C209.821 132.51 207.955 132.883 206.031 132.589C204.079 132.323 202.133 131.383 200.095 130.543C198.063 129.703 195.967 129.136 194.094 129.48C192.22 129.796 190.77 130.873 189.808 131.928C188.839 132.998 188.294 134.053 187.978 134.792C187.669 135.539 187.561 135.984 187.533 135.97C187.525 135.97 187.54 135.855 187.59 135.646C187.633 135.431 187.726 135.13 187.863 134.742C188.15 133.981 188.667 132.883 189.643 131.77C190.598 130.672 192.084 129.531 194.043 129.186C196.003 128.813 198.171 129.394 200.217 130.241C202.27 131.088 204.194 132.014 206.081 132.287C207.948 132.589 209.742 132.244 210.884 131.375C212.039 130.514 212.528 129.365 212.642 128.583C212.75 127.801 212.585 127.356 212.628 127.356Z"
            fill="#455A64" />
        <path
            d="M181.087 141.985C181.051 141.985 181.051 141.461 181.273 140.657C181.481 139.853 181.941 138.769 182.73 137.764C183.118 137.262 183.556 136.831 183.979 136.479C184.403 136.127 184.862 135.869 185.3 135.79C185.731 135.711 186.09 135.797 186.305 135.905C186.521 136.02 186.6 136.127 186.585 136.142C186.571 136.192 186.126 135.812 185.35 136.013C184.597 136.206 183.75 137.018 182.982 137.965C182.221 138.934 181.747 139.961 181.489 140.729C181.216 141.49 181.137 141.992 181.087 141.985Z"
            fill="#455A64" />
        <path
            d="M182.357 146.148C182.321 146.141 182.364 145.624 182.63 144.828C182.888 144.031 183.405 142.976 184.231 141.985C185.056 141.002 186.011 140.298 186.743 139.903C187.482 139.501 187.985 139.372 187.999 139.401C188.021 139.451 187.547 139.659 186.858 140.097C186.169 140.535 185.271 141.231 184.475 142.186C183.678 143.141 183.147 144.146 182.838 144.907C182.529 145.66 182.407 146.156 182.357 146.148Z"
            fill="#455A64" />
        <path
            d="M225.054 343.746L236.051 358.203L241.449 372.151C241.837 373.156 243 373.622 243.976 373.163C244.521 372.904 244.909 372.409 245.017 371.813C245.699 368.03 248.147 354.119 247.285 353.099C246.287 351.929 236.697 337.077 236.697 337.077L225.054 343.746Z"
            fill="#455A64" />
        <g opacity="0.6">
            <g opacity="0.6">
                <g opacity="0.6">
                    <g opacity="0.6">
                        <g opacity="0.6">
                            <g opacity="0.6">
                                <g opacity="0.6">
                                    <path opacity="0.6"
                                        d="M243.976 373.163L246.56 352.109L247.012 352.733C247.4 353.272 247.594 353.932 247.544 354.593C247.407 356.366 246.919 361.261 245.06 371.777C244.952 372.395 244.543 372.919 243.976 373.163Z"
                                        fill="white" />
                                </g>
                            </g>
                        </g>
                    </g>
                </g>
            </g>
        </g>
        <g opacity="0.6">
            <g opacity="0.6">
                <g opacity="0.6">
                    <g opacity="0.6">
                        <g opacity="0.6">
                            <g opacity="0.6">
                                <g opacity="0.6">
                                    <g opacity="0.6">
                                        <path opacity="0.6"
                                            d="M240.1 349.561C239.913 350.085 240.2 350.731 240.717 350.932C241.234 351.14 241.887 350.853 242.081 350.336C242.275 349.819 241.959 349.029 241.42 348.886C240.889 348.742 240.135 349.116 240.071 349.661"
                                            fill="white" />
                                    </g>
                                </g>
                            </g>
                        </g>
                    </g>
                </g>
            </g>
        </g>
        <path
            d="M242.677 364.298C242.626 364.398 241.736 363.867 240.559 364.089C239.375 364.276 238.714 365.073 238.628 364.994C238.592 364.965 238.693 364.721 239.001 364.42C239.303 364.125 239.841 363.81 240.487 363.695C241.14 363.587 241.743 363.702 242.131 363.881C242.526 364.061 242.705 364.262 242.677 364.298Z"
            fill="#223263" />
        <path
            d="M243.057 367.033C243.036 367.147 242.217 367.011 241.298 367.341C240.372 367.657 239.82 368.274 239.726 368.196C239.633 368.152 240.114 367.327 241.162 366.961C242.21 366.588 243.107 366.932 243.057 367.033Z"
            fill="#223263" />
        <path
            d="M242.799 360.364C242.777 360.486 241.521 360.271 240.049 360.665C238.571 361.039 237.573 361.836 237.501 361.742C237.422 361.678 238.362 360.687 239.949 360.285C241.528 359.854 242.835 360.271 242.799 360.364Z"
            fill="#223263" />
        <path
            d="M239.82 355.691C239.841 355.806 238.786 356.057 237.702 356.789C236.604 357.5 235.965 358.383 235.864 358.311C235.771 358.268 236.302 357.227 237.479 356.459C238.65 355.669 239.82 355.583 239.82 355.691Z"
            fill="#223263" />
        <path
            d="M236.697 351.362C236.711 351.477 235.541 351.585 234.465 352.446C233.366 353.286 232.979 354.392 232.871 354.349C232.828 354.334 232.85 354.033 233.051 353.595C233.244 353.157 233.639 352.59 234.221 352.13C234.809 351.671 235.448 351.434 235.922 351.348C236.396 351.269 236.697 351.312 236.697 351.362Z"
            fill="#223263" />
        <path
            d="M233.89 351.599C233.869 351.614 233.697 351.441 233.467 351.061C233.244 350.68 232.964 350.085 232.85 349.281C232.814 348.893 232.72 348.419 232.993 347.931C233.129 347.687 233.46 347.5 233.776 347.572C234.084 347.637 234.314 347.838 234.486 348.067C235.147 349.015 235.003 350.494 234.048 351.391C233.079 352.274 231.687 352.36 230.682 351.858C230.438 351.714 230.194 351.506 230.122 351.176C230.05 350.845 230.28 350.53 230.517 350.408C230.998 350.156 231.457 350.207 231.852 350.207C232.656 350.25 233.28 350.451 233.682 350.623C234.091 350.795 234.285 350.946 234.278 350.968C234.256 351.046 233.381 350.515 231.845 350.494C231.471 350.501 231.019 350.494 230.689 350.695C230.524 350.788 230.438 350.946 230.473 351.111C230.502 351.269 230.667 351.434 230.868 351.542C231.701 351.944 232.972 351.858 233.783 351.104C234.594 350.357 234.723 349.051 234.192 348.29C234.063 348.111 233.883 347.96 233.711 347.924C233.539 347.888 233.374 347.96 233.28 348.118C233.079 348.441 233.108 348.886 233.137 349.259C233.302 350.781 233.969 351.57 233.89 351.599Z"
            fill="#223263" />
        <path
            d="M214.703 350.666L212.564 365.317C212.564 365.317 226.841 371.34 226.712 374.089L198.049 372.029L200.447 349.058L214.703 350.666Z"
            fill="#455A64" />
        <g opacity="0.6">
            <g opacity="0.6">
                <g opacity="0.6">
                    <g opacity="0.6">
                        <g opacity="0.6">
                            <g opacity="0.6">
                                <g opacity="0.6">
                                    <g opacity="0.6">
                                        <g opacity="0.6">
                                            <g opacity="0.6">
                                                <path opacity="0.6"
                                                    d="M203.863 363.12C203.296 363.214 202.844 363.788 202.909 364.362C202.973 364.937 203.562 365.396 204.129 365.317C204.696 365.238 205.263 364.556 205.134 363.996C205.005 363.436 204.287 362.927 203.749 363.142"
                                                    fill="white" />
                                            </g>
                                        </g>
                                    </g>
                                </g>
                            </g>
                        </g>
                    </g>
                </g>
            </g>
        </g>
        <g opacity="0.6">
            <g opacity="0.6">
                <g opacity="0.6">
                    <g opacity="0.6">
                        <g opacity="0.6">
                            <g opacity="0.6">
                                <g opacity="0.6">
                                    <g opacity="0.6">
                                        <g opacity="0.6">
                                            <path opacity="0.6"
                                                d="M198.042 372.036L198.286 369.717L225.894 372.668C225.894 372.668 226.784 373.141 226.834 374.311L198.042 372.036Z"
                                                fill="white" />
                                        </g>
                                    </g>
                                </g>
                            </g>
                        </g>
                    </g>
                </g>
            </g>
        </g>
        <path
            d="M213.037 365.231C213.016 365.367 212.312 365.36 211.58 365.733C210.834 366.085 210.417 366.652 210.295 366.58C210.173 366.537 210.468 365.726 211.365 365.295C212.255 364.843 213.08 365.102 213.037 365.231Z"
            fill="#223263" />
        <path
            d="M215.901 366.796C215.916 366.932 215.291 367.104 214.753 367.643C214.2 368.167 214.006 368.791 213.87 368.77C213.734 368.777 213.726 367.951 214.408 367.291C215.083 366.631 215.909 366.659 215.901 366.796Z"
            fill="#223263" />
        <path
            d="M217.208 370.564C217.079 370.579 216.957 369.861 217.402 369.136C217.84 368.411 218.529 368.181 218.572 368.303C218.636 368.425 218.17 368.791 217.818 369.387C217.452 369.983 217.344 370.572 217.208 370.564Z"
            fill="#223263" />
        <path
            d="M213.152 361.836C213.08 361.958 212.463 361.692 211.666 361.663C210.869 361.613 210.231 361.814 210.173 361.685C210.101 361.577 210.762 361.125 211.695 361.175C212.628 361.218 213.238 361.735 213.152 361.836Z"
            fill="#223263" />
        <g opacity="0.3">
            <g opacity="0.3">
                <g opacity="0.3">
                    <g opacity="0.3">
                        <g opacity="0.3">
                            <g opacity="0.3">
                                <g opacity="0.3">
                                    <g opacity="0.3">
                                        <g opacity="0.3">
                                            <path opacity="0.3"
                                                d="M214.272 353.573L213.892 356.179L199.872 354.514L200.109 352.152L214.272 353.573Z"
                                                fill="#010202" />
                                        </g>
                                    </g>
                                </g>
                            </g>
                        </g>
                    </g>
                </g>
            </g>
        </g>
        <path
            d="M213.533 358.871C213.526 358.928 212.966 358.957 212.104 358.706C211.674 358.584 211.171 358.383 210.661 358.081C210.403 357.93 210.145 357.758 209.886 357.557C209.764 357.457 209.621 357.356 209.491 357.177C209.355 357.012 209.305 356.631 209.506 356.43C209.678 356.229 209.944 356.157 210.152 356.179C210.36 356.193 210.532 356.258 210.683 356.315C210.992 356.43 211.279 356.567 211.537 356.717C212.054 357.026 212.463 357.385 212.765 357.729C213.36 358.419 213.533 358.964 213.475 358.986C213.403 359.022 213.131 358.555 212.513 357.974C212.205 357.686 211.803 357.378 211.315 357.112C211.071 356.983 210.805 356.868 210.518 356.768C210.223 356.653 209.965 356.624 209.872 356.753C209.836 356.804 209.829 356.818 209.886 356.918C209.944 357.004 210.058 357.098 210.173 357.198C210.41 357.392 210.647 357.564 210.884 357.715C211.358 358.017 211.81 358.239 212.212 358.397C213.009 358.699 213.547 358.792 213.533 358.871Z"
            fill="#223263" />
        <path
            d="M213.332 359.05C213.281 359.065 213.059 358.533 213.109 357.629C213.138 357.177 213.238 356.638 213.475 356.086C213.597 355.806 213.748 355.526 213.935 355.26C214.136 354.995 214.38 354.643 214.925 354.636C215.212 354.657 215.421 354.901 215.478 355.102C215.55 355.303 215.55 355.476 215.564 355.641C215.579 355.978 215.535 356.308 215.456 356.603C215.299 357.198 214.997 357.679 214.681 358.017C214.042 358.699 213.439 358.799 213.432 358.749C213.396 358.677 213.906 358.455 214.416 357.794C214.667 357.464 214.904 357.026 215.019 356.502C215.076 356.244 215.105 355.956 215.083 355.669C215.069 355.361 214.983 355.102 214.868 355.124C214.724 355.109 214.459 355.31 214.315 355.54C214.143 355.777 213.992 356.028 213.877 356.28C213.64 356.775 213.511 357.263 213.447 357.679C213.317 358.498 213.411 359.036 213.332 359.05Z"
            fill="#223263" />
        <path
            d="M223.647 228.713C223.647 228.713 230.409 241.685 230.409 252.179C230.409 254.398 216.684 364.491 216.684 364.491L197.259 362.862L206.677 261.138L203.627 240.464L223.647 228.713Z"
            fill="#313155" />
        <path
            d="M180.398 240.206C180.398 240.206 184.934 278.115 187.066 292.723C189.299 308.012 193.677 310.905 193.677 310.905L232.376 359.854L245.096 348.577L211.774 298.501C211.774 298.501 204.711 238.727 205.005 240.206C205.285 241.685 180.398 240.206 180.398 240.206Z"
            fill="#223263" />
        <path
            d="M194.359 311.537C194.352 311.544 194.46 311.709 194.69 312.004C194.941 312.327 195.271 312.757 195.687 313.296C196.585 314.451 197.841 316.059 199.377 318.041C202.478 322.103 206.728 327.66 211.415 333.797C216.11 339.963 220.381 345.519 223.546 349.489C225.126 351.477 226.425 353.071 227.337 354.155C227.775 354.672 228.126 355.088 228.392 355.404C228.636 355.684 228.772 355.827 228.779 355.82C228.787 355.813 228.679 355.648 228.449 355.353C228.198 355.03 227.868 354.6 227.451 354.061C226.554 352.906 225.298 351.298 223.762 349.317C220.661 345.254 216.411 339.698 211.724 333.56C207.036 327.401 202.758 321.838 199.592 317.868C198.013 315.88 196.714 314.286 195.802 313.202C195.364 312.686 195.013 312.269 194.747 311.953C194.503 311.666 194.374 311.523 194.359 311.537Z"
            fill="#313155" />
        <path
            d="M207.524 262.401C207.517 262.401 207.517 262.459 207.524 262.574C207.539 262.71 207.546 262.875 207.567 263.076C207.618 263.55 207.682 264.196 207.761 265.014C207.948 266.723 208.214 269.149 208.537 272.128C209.233 278.158 210.188 286.434 211.243 295.58C211.365 296.585 211.48 297.582 211.587 298.515L211.595 298.559L211.616 298.594C216.347 305.694 220.553 312.011 223.604 316.591C225.118 318.837 226.346 320.661 227.215 321.946C227.631 322.549 227.961 323.029 228.205 323.381C228.313 323.532 228.399 323.647 228.471 323.747C228.535 323.826 228.564 323.869 228.571 323.869C228.578 323.869 228.55 323.819 228.499 323.733C228.435 323.625 228.356 323.503 228.263 323.345C228.033 322.986 227.717 322.491 227.322 321.874C226.475 320.574 225.284 318.737 223.805 316.461C220.783 311.867 216.605 305.522 211.91 298.401L211.939 298.48C211.831 297.546 211.709 296.549 211.595 295.544C210.496 286.406 209.506 278.129 208.788 272.099C208.415 269.127 208.113 266.708 207.898 265C207.79 264.189 207.697 263.543 207.639 263.069C207.611 262.868 207.582 262.703 207.56 262.566C207.546 262.459 207.532 262.401 207.524 262.401Z"
            fill="#313155" />
        <g opacity="0.3">
            <g opacity="0.3">
                <path opacity="0.3"
                    d="M182.142 254.563C182.142 254.563 197.188 258.532 207.524 256.888C222.104 254.563 230.079 247.901 230.079 247.901L228.779 243.738L181.539 249.667L182.142 254.563Z"
                    fill="#313155" />
            </g>
        </g>
        <path
            d="M205.809 168.437L217.316 171.739C217.316 171.739 224.092 220.035 225.779 227.084C227.889 235.928 230.265 242.898 230.057 245.36C230.057 245.36 224.817 252.301 209.398 254.118C193.979 255.934 179.285 251.62 179.285 251.62L178.021 222.641C178.021 222.641 170.908 196.698 170.75 192.37C170.369 181.739 172.954 175.536 172.954 175.536L188.315 168.652C192.586 173.433 203.569 175.005 205.809 168.437Z"
            fill="#9098B1" />
        <path
            d="M227.143 180.597C223.999 173.562 217.323 171.739 217.323 171.739L218.306 196.016L224.652 203.955L218.306 208.262L228.973 222.095C228.973 222.095 239.181 217.3 239.64 212.993C240.085 208.679 228.844 184.394 227.143 180.597Z"
            fill="#9098B1" />
        <path
            d="M197.891 207.372L195.293 216.403C204.258 227.034 228.966 222.095 228.966 222.095L219.139 208.219C214.035 209.878 197.891 207.372 197.891 207.372Z"
            fill="#9098B1" />
        <path
            d="M195.709 206.059C195.709 206.059 191.1 196.978 190.605 196.87C190.11 196.763 182.86 194.214 182.86 194.214C182.86 194.214 182.472 195.212 182.86 196.038L180.261 196.368C180.261 196.368 180.649 197.976 181.532 198.191L180.591 199.024C180.591 199.024 181.367 200.086 182.364 200.524C183.362 200.962 184.08 200.524 184.08 200.524C184.08 200.524 183.75 201.127 185.243 202.068C186.736 203.008 189.751 207.365 189.751 207.365L195.709 206.059Z"
            fill="#F9BE9D" />
        <path
            d="M183.089 196.074C183.053 196.174 185.178 197.007 187.834 197.918C188.495 198.155 189.155 198.335 189.672 198.586C190.196 198.83 190.526 199.232 190.756 199.62C191.187 200.402 191.352 200.969 191.416 200.941C191.452 200.926 191.395 200.352 191 199.483C190.799 199.06 190.426 198.557 189.837 198.263C189.263 197.969 188.624 197.789 187.963 197.552C185.307 196.626 183.125 195.966 183.089 196.074Z"
            fill="#313155" />
        <path
            d="M181.395 198.198C181.381 198.249 181.869 198.464 182.709 198.672C183.542 198.895 184.712 199.081 185.953 199.419C187.195 199.756 188.236 200.28 188.889 200.797C189.55 201.307 189.844 201.759 189.894 201.723C189.93 201.709 189.715 201.185 189.069 200.589C188.43 199.986 187.339 199.383 186.054 199.038C184.776 198.694 183.599 198.55 182.766 198.399C181.926 198.263 181.417 198.148 181.395 198.198Z"
            fill="#313155" />
        <path
            d="M188.042 202.024C188.114 201.953 187.425 201.242 186.305 200.847C185.185 200.445 184.202 200.553 184.216 200.661C184.216 200.775 185.128 200.84 186.176 201.22C187.217 201.587 187.971 202.118 188.042 202.024Z"
            fill="#313155" />
        <path
            d="M177.174 175.658C180.455 176.462 181.424 180.317 183.692 188.027C185.961 195.736 188.452 203.675 188.452 203.675L189.736 207.372L218.306 200.474L224.085 209.626C224.085 209.626 205.5 224.385 192.148 224.974C185.645 224.371 181.402 221.93 176.098 213.158C173.097 208.198 171.137 203.604 170.247 199.132C169.005 192.894 166.924 186.792 168.668 180.891C170.046 176.261 172.487 174.51 177.174 175.658Z"
            fill="#9098B1" />
        <path
            d="M219.11 193.92C219.218 193.899 218.945 192.176 218.5 190.073C218.055 187.969 217.61 186.282 217.509 186.304C217.402 186.325 217.674 188.048 218.12 190.152C218.557 192.255 219.002 193.942 219.11 193.92Z"
            fill="#223263" />
        <g opacity="0.3">
            <g opacity="0.3">
                <g opacity="0.3">
                    <g opacity="0.3">
                        <g opacity="0.3">
                            <path opacity="0.3"
                                d="M198.939 223.732C200.403 223.114 202.543 222.476 204.115 222.231C206.024 221.944 207.618 222.504 209.52 222.806C215.198 223.696 219.433 223.021 224.788 222.784L225.075 224.428C222.721 226.266 219.756 226.847 216.77 226.797C214.057 226.747 211.401 225.864 208.687 225.943C206.548 226 204.481 226.653 202.413 227.206C198.961 228.125 195.35 228.685 191.811 228.154C182.931 226.818 179.507 219.834 178.029 216.582C178.553 217.429 179.809 219.231 180.484 219.942C186.133 225.813 194.252 225.706 198.939 223.732Z"
                                fill="#010202" />
                        </g>
                    </g>
                </g>
            </g>
        </g>
        <path
            d="M225.075 209.705C225.083 209.712 225.032 209.748 224.939 209.827C224.824 209.913 224.688 210.021 224.523 210.15C224.149 210.437 223.597 210.839 222.872 211.349C221.429 212.376 219.304 213.811 216.605 215.477C213.906 217.135 210.625 219.023 206.835 220.81C205.888 221.255 204.911 221.715 203.892 222.117C203.382 222.325 202.873 222.533 202.349 222.748C201.825 222.942 201.286 223.122 200.748 223.315C198.602 224.105 196.283 224.651 193.878 225.017C192.658 225.074 191.459 225.239 190.268 225.11C189.083 224.966 187.92 224.744 186.851 224.299C184.676 223.495 182.867 222.124 181.331 220.695C178.294 217.745 176.349 214.429 174.906 211.615C173.485 208.779 172.587 206.36 172.02 204.68C171.74 203.841 171.547 203.18 171.417 202.728C171.367 202.52 171.324 202.347 171.288 202.211C171.259 202.096 171.252 202.032 171.259 202.032C171.267 202.032 171.288 202.089 171.324 202.204C171.367 202.34 171.425 202.505 171.489 202.706C171.633 203.151 171.855 203.797 172.157 204.63C172.767 206.288 173.693 208.679 175.136 211.493C176.593 214.278 178.56 217.551 181.56 220.444C183.082 221.844 184.862 223.179 186.98 223.954C188.021 224.385 189.155 224.6 190.304 224.737C191.459 224.866 192.644 224.701 193.835 224.643C196.204 224.284 198.494 223.746 200.633 222.964C201.172 222.777 201.703 222.59 202.227 222.411C202.744 222.203 203.253 221.995 203.763 221.786C204.782 221.392 205.751 220.939 206.699 220.501C210.482 218.736 213.762 216.876 216.476 215.254C219.189 213.625 221.328 212.225 222.8 211.234C223.51 210.753 224.078 210.373 224.487 210.093C224.666 209.971 224.81 209.878 224.925 209.799C225.025 209.734 225.075 209.698 225.075 209.705Z"
            fill="#223263" />
        <path
            d="M182.939 184.595C182.924 184.595 182.96 184.761 183.039 185.062C183.132 185.392 183.247 185.83 183.398 186.376C183.735 187.553 184.209 189.197 184.791 191.228C186.011 195.363 187.691 201.048 189.571 207.423L189.622 207.588L189.808 207.537C190.476 207.372 191.273 207.207 192.034 207.042C199.075 205.535 205.428 204.063 209.994 202.857C212.276 202.261 214.114 201.73 215.377 201.35C215.98 201.156 216.461 200.998 216.827 200.883C217.158 200.775 217.33 200.711 217.323 200.696C217.316 200.682 217.143 200.725 216.806 200.811C216.44 200.912 215.952 201.048 215.342 201.213C214.064 201.551 212.226 202.046 209.936 202.606C205.356 203.747 199.004 205.176 191.962 206.683C191.179 206.855 190.447 206.999 189.686 207.2L189.923 207.315C187.999 200.948 186.284 195.277 185.035 191.149C184.41 189.139 183.9 187.503 183.534 186.333C183.362 185.794 183.219 185.364 183.111 185.033C183.003 184.746 182.946 184.595 182.939 184.595Z"
            fill="#223263" />
        <path
            d="M226.468 207.487L238.736 207.265C239.87 207.308 240.918 206.525 241.384 205.298L248.548 183.562C249.094 181.932 247.881 180.604 245.943 180.489L230.926 179.642C228.514 179.621 227.229 180.396 226.813 181.774L222.125 198.902C220.941 202.864 222.922 207.358 226.468 207.487Z"
            fill="#223263" />
        <path
            d="M217.746 199.203L219.706 195.054L223.324 194.035L222.168 197.861C223.432 198.471 225.104 198.873 226.202 198.27C227.293 197.667 231.579 193.41 232.383 193.82C233.187 194.229 233.912 195.205 233.173 196.138C232.433 197.071 228.42 199.971 229.246 200.826C230.079 201.68 234.702 197.926 236.058 198.206C237.422 198.486 238.248 199.275 237.487 199.849C236.74 200.424 234.867 202.297 234.536 203.108C234.615 204.128 235.103 205.578 234.658 205.829C234.005 206.202 231.723 206.985 231.256 207.006C231.012 207.021 229.289 207.695 227.703 208.334C225.915 209.052 223.934 209.102 222.118 208.463L221.192 208.14C219.749 207.638 218.794 206.267 218.809 204.745L218.837 201.68L217.746 199.203Z"
            fill="#F9BE9D" />
    </g>
    <defs>
        <clipPath id="clip0_1_630">
            <rect width="290" height="380" fill="white" />
        </clipPath>
        <clipPath id="clip1_1_630">
            <rect width="134" height="218" fill="white" transform="translate(65 119)" />
        </clipPath>
    </defs>
</svg>