<svg width="290" height="380" viewBox="0 0 290 380" fill="none" xmlns="http://www.w3.org/2000/svg">
    <g clip-path="url(#clip0_1_21)">
        <path
            d="M92.9222 335.488C67.1011 337.804 43.324 320.714 26.7678 300.783C10.7363 281.486 -1.41063 257.361 0.132219 232.328C1.17383 215.503 8.59045 199.148 20.5651 187.27C29.1408 178.764 40.8414 172.355 52.863 173.599C67.336 175.093 79.0757 187.097 93.5409 188.663C108.272 190.251 121.586 180.829 134.234 173.122C145.622 166.181 158.027 160.202 171.317 159.146C184.616 158.089 198.979 162.769 206.725 173.615C212.755 182.066 214.314 193.334 221.378 200.948C228.755 208.891 240.26 210.996 250.527 214.486C268.015 220.441 284.673 233.118 288.934 251.077C292.92 267.886 285.222 285.477 274.43 298.968C253.997 324.501 221.573 340.027 188.845 339.933C182.117 339.917 175.241 339.236 169.14 336.404"
            fill="#EBF0FF" />
        <path
            d="M127.793 263.026C123.465 260.673 119.347 257.949 115.486 254.901C111.663 251.881 108.088 248.547 104.808 244.946C101.491 241.308 98.4593 237.402 95.7709 233.278C93.1015 229.182 90.7563 224.876 88.7829 220.409C86.8095 215.941 85.2079 211.302 84.0067 206.568C83.8542 205.978 83.7112 205.387 83.5777 204.796C83.511 204.53 83.1106 204.663 83.1678 204.93C84.2737 209.74 85.799 214.455 87.7152 219.018C89.6123 223.543 91.8813 227.915 94.4839 232.068C97.0865 236.231 100.032 240.174 103.264 243.87C106.524 247.585 110.08 251.043 113.894 254.177C117.688 257.291 121.74 260.092 126.001 262.531C126.525 262.835 127.059 263.131 127.603 263.416C127.841 263.54 128.032 263.159 127.793 263.026Z"
            fill="#F2994A" />
        <path
            d="M84.4349 208.273C81.4128 206.892 78.2859 202.825 77.6376 198.843C77.4565 197.748 77.3993 196.576 77.6567 195.442C77.9141 194.299 78.5147 193.185 79.3727 192.613C80.2593 192.023 81.2889 192.08 82.1564 192.471C84.3396 193.442 85.5789 196.3 85.7696 199.272C85.9412 202.234 85.2452 205.311 84.4349 208.273Z"
            fill="#F2994A" />
        <path
            d="M88.2202 218.742C85.303 220.323 80.1646 220.371 76.5896 218.485C75.6076 217.97 74.6352 217.313 73.8821 216.418C73.1194 215.532 72.5951 214.379 72.6618 213.351C72.7286 212.284 73.3959 211.503 74.2253 211.045C76.3226 209.893 79.3447 210.626 81.8329 212.265C84.302 213.903 86.3422 216.313 88.2202 218.742Z"
            fill="#F2994A" />
        <path
            d="M87.9242 219.209C86.885 216.056 87.743 210.998 90.2312 207.816C90.9176 206.94 91.728 206.101 92.7385 205.511C93.749 204.92 94.9788 204.606 95.9798 204.854C97.019 205.101 97.6768 205.901 97.9723 206.797C98.7445 209.064 97.4766 211.912 95.4269 214.065C93.3772 216.208 90.6412 217.789 87.9242 219.209Z"
            fill="#F2994A" />
        <path
            d="M95.8755 233.097C93.2348 235.097 88.163 235.935 84.3497 234.611C83.301 234.249 82.2428 233.744 81.3562 232.982C80.4696 232.22 79.7737 231.163 79.6784 230.134C79.583 229.077 80.1169 228.191 80.87 227.62C82.7672 226.153 85.8655 226.429 88.573 227.667C91.2709 228.905 93.6447 230.982 95.8755 233.097Z"
            fill="#F2994A" />
        <path
            d="M95.6463 233.602C94.14 230.649 94.2163 225.515 96.1897 221.99C96.7331 221.019 97.4099 220.066 98.3156 219.333C99.2213 218.599 100.394 218.104 101.423 218.189C102.482 218.275 103.254 218.971 103.692 219.799C104.798 221.923 103.988 224.924 102.291 227.363C100.585 229.811 98.1249 231.782 95.6463 233.602Z"
            fill="#F2994A" />
        <path
            d="M106.229 246.433C103.893 248.785 98.9933 250.319 95.0275 249.557C93.9407 249.347 92.8157 248.995 91.8338 248.366C90.8519 247.738 90.0129 246.785 89.7746 245.785C89.5267 244.747 89.9367 243.804 90.5945 243.127C92.2628 241.413 95.3802 241.241 98.2307 242.089C101.081 242.937 103.731 244.651 106.229 246.433Z"
            fill="#F2994A" />
        <path
            d="M106.076 246.966C104.169 244.251 103.521 239.165 104.98 235.402C105.38 234.364 105.923 233.325 106.715 232.468C107.516 231.611 108.593 230.954 109.622 230.896C110.69 230.839 111.548 231.411 112.092 232.173C113.483 234.116 113.102 237.212 111.767 239.86C110.433 242.518 108.278 244.823 106.076 246.966Z"
            fill="#F2994A" />
        <path
            d="M117.802 256.644C116.363 258.873 112.778 260.873 109.556 260.921C108.669 260.93 107.735 260.845 106.867 260.511C105.99 260.178 105.18 259.568 104.827 258.825C104.465 258.054 104.627 257.244 105.037 256.615C106.067 254.996 108.469 254.358 110.833 254.558C113.198 254.758 115.552 255.663 117.802 256.644Z"
            fill="#F2994A" />
        <path
            d="M117.773 257.092C115.838 255.282 114.494 251.405 115.018 248.223C115.161 247.347 115.409 246.452 115.895 245.651C116.382 244.851 117.116 244.156 117.916 243.946C118.736 243.727 119.508 244.032 120.061 244.547C121.472 245.842 121.682 248.319 121.062 250.614C120.452 252.9 119.137 255.053 117.773 257.092Z"
            fill="#F2994A" />
        <path
            d="M82.3285 280.268C79.5404 283.226 75.7264 285.112 71.7557 285.988C67.785 286.865 63.6499 286.779 59.6244 286.2C47.3678 284.431 35.863 277.952 28 268.389C29.3627 266.879 31.3128 266.034 33.2394 265.376C40.5385 262.865 48.5112 262.332 56.0845 263.835C63.6577 265.337 70.8159 268.89 76.5957 274C78.2325 275.44 81.3104 278.359 82.3285 280.268Z"
            fill="#6FCF97" />
        <path
            d="M31.6574 268.734C38.0872 269.821 44.3996 271.504 50.6728 273.272C56.946 275.049 63.2035 276.919 69.555 278.398C73.1028 279.227 76.6818 279.932 80.3001 280.424C80.6212 280.471 80.723 279.971 80.4019 279.924C73.9486 279.039 67.6049 277.482 61.3239 275.753C55.0272 274.023 48.7853 272.114 42.4573 270.518C38.9174 269.626 35.354 268.835 31.7592 268.225C31.4381 268.178 31.3363 268.679 31.6574 268.734Z"
            fill="white" />
        <path
            d="M72.022 278.578C70.1345 279.564 68.1766 280.417 66.1717 281.129C64.1668 281.841 62.107 282.42 60.0238 282.85C58.8412 283.093 57.6508 283.289 56.4526 283.437C56.1315 283.476 56.1628 283.985 56.4917 283.946C58.6376 283.68 60.7678 283.265 62.8589 282.702C64.9421 282.138 66.994 281.434 68.9833 280.581C70.111 280.096 71.2231 279.572 72.3117 279C72.4371 278.938 72.4527 278.75 72.3822 278.648C72.2883 278.523 72.1394 278.515 72.022 278.578Z"
            fill="white" />
        <path
            d="M65.2711 276.731C64.2138 274.97 62.8354 273.429 61.3004 272.075C59.7419 270.705 58.0267 269.516 56.2724 268.405C55.2778 267.779 54.2675 267.168 53.2572 266.566C52.9753 266.402 52.7482 266.855 53.0301 267.02C54.7922 268.068 56.5466 269.125 58.2225 270.306C59.8829 271.472 61.457 272.771 62.8197 274.282C63.5794 275.127 64.2686 276.042 64.8481 277.013C65.0204 277.294 65.4434 277.013 65.2711 276.731Z"
            fill="white" />
        <path
            d="M54.0404 273.781C51.3619 274.79 48.566 275.44 45.7153 275.706C44.9164 275.784 44.1176 275.823 43.3188 275.839C42.9899 275.847 43.029 276.355 43.3579 276.348C46.24 276.293 49.1142 275.855 51.8788 275.041C52.662 274.814 53.4452 274.548 54.2127 274.258C54.5103 274.149 54.3458 273.671 54.0404 273.781Z"
            fill="white" />
        <path
            d="M46.3105 271.449C44.4387 269.32 42.1362 267.599 39.5753 266.386C38.8547 266.049 38.1107 265.752 37.3589 265.494C37.0456 265.392 36.889 265.869 37.2023 265.979C39.8102 266.855 42.2302 268.264 44.2743 270.103C44.8617 270.627 45.4099 271.191 45.9346 271.785C46.1539 272.036 46.5298 271.691 46.3105 271.449Z"
            fill="white" />
        <path
            d="M133.393 292.9C132.25 285.872 133.675 278.564 136.683 272.108C139.69 265.652 144.209 259.986 149.307 255.01C164.814 239.852 186.109 230.743 207.795 230C208.445 233.506 207.544 237.113 206.416 240.494C202.132 253.319 194.394 264.979 184.229 273.908C174.063 282.836 161.501 289.01 148.227 291.616C144.491 292.344 137.145 293.51 133.393 292.9Z"
            fill="#6FCF97" />
        <path
            d="M203.432 234.726C195.06 242.513 186.007 249.501 176.851 256.34C167.696 263.179 158.431 269.885 149.597 277.139C144.663 281.193 139.87 285.426 135.328 289.918C134.921 290.317 135.508 290.99 135.915 290.583C144.029 282.547 152.941 275.387 162.034 268.493C171.15 261.583 180.454 254.931 189.421 247.826C194.434 243.859 199.336 239.742 204.02 235.392C204.443 235 203.855 234.335 203.432 234.726Z"
            fill="white" />
        <path
            d="M146.731 280.363C147.365 276.686 148.266 273.055 149.409 269.502C150.553 265.949 151.939 262.475 153.568 259.118C154.492 257.216 155.487 255.354 156.552 253.531C156.841 253.038 156.097 252.545 155.808 253.045C153.889 256.316 152.205 259.72 150.764 263.234C149.323 266.732 148.125 270.339 147.193 274.002C146.66 276.083 146.214 278.188 145.846 280.309C145.807 280.543 146.042 280.77 146.261 280.778C146.519 280.794 146.684 280.598 146.731 280.363Z"
            fill="white" />
        <path
            d="M156.489 272.953C160.06 273.352 163.686 273.078 167.203 272.382C170.774 271.677 174.259 270.551 177.674 269.299C179.608 268.586 181.527 267.827 183.446 267.06C183.978 266.849 183.587 266.051 183.054 266.262C179.718 267.593 176.374 268.915 172.943 269.979C169.552 271.036 166.059 271.857 162.512 272.147C160.522 272.311 158.525 272.288 156.544 272.061C155.98 271.998 155.925 272.882 156.489 272.953Z"
            fill="white" />
        <path
            d="M172.56 260.464C174.009 255.675 176.084 251.081 178.747 246.84C179.491 245.651 180.282 244.492 181.112 243.366C181.449 242.904 180.705 242.419 180.368 242.88C177.376 246.95 174.933 251.41 173.108 256.121C172.591 257.459 172.129 258.82 171.714 260.19C171.549 260.73 172.395 261.012 172.56 260.464Z"
            fill="white" />
        <path
            d="M184.041 252.208C188.998 251.872 193.846 250.502 198.263 248.233C199.509 247.591 200.707 246.879 201.866 246.097C202.344 245.776 201.835 245.04 201.357 245.361C197.363 248.053 192.812 249.923 188.082 250.8C186.727 251.05 185.357 251.222 183.978 251.316C183.399 251.355 183.469 252.247 184.041 252.208Z"
            fill="white" />
        <path
            d="M104.405 239.878C103.309 235.989 102.557 232.006 102.134 227.983C101.719 224.008 101.633 219.994 101.868 215.995C102.103 211.957 102.674 207.943 103.559 203.991C104.436 200.071 105.627 196.228 107.131 192.504C108.634 188.779 110.443 185.179 112.542 181.759C112.801 181.337 113.075 180.907 113.341 180.492C113.466 180.304 113.153 180.14 113.028 180.327C110.827 183.739 108.924 187.339 107.342 191.072C105.768 194.781 104.491 198.615 103.536 202.536C102.58 206.456 101.938 210.447 101.625 214.469C101.304 218.515 101.312 222.584 101.656 226.63C101.993 230.644 102.666 234.635 103.677 238.532C103.802 239.017 103.935 239.502 104.068 239.98C104.131 240.206 104.468 240.097 104.405 239.878Z"
            fill="#D27C7B" />
        <path
            d="M111.79 183.004C110.866 180.437 111.469 176.266 113.443 173.606C113.983 172.87 114.641 172.166 115.456 171.665C116.27 171.156 117.273 170.875 118.103 171.055C118.956 171.234 119.512 171.876 119.787 172.604C120.468 174.451 119.489 176.814 117.852 178.622C116.215 180.429 113.999 181.783 111.79 183.004Z"
            fill="#D27C7B" />
        <path
            d="M107.796 191.228C105.196 190.414 102.22 187.425 101.28 184.248C101.022 183.371 100.849 182.425 100.943 181.47C101.03 180.515 101.413 179.545 102.048 178.989C102.713 178.418 103.559 178.363 104.295 178.582C106.175 179.154 107.483 181.353 107.937 183.755C108.407 186.149 108.156 188.732 107.796 191.228Z"
            fill="#D27C7B" />
        <path
            d="M107.35 191.314C108.611 188.896 112.08 186.502 115.377 186.142C116.286 186.04 117.249 186.04 118.173 186.298C119.097 186.556 119.99 187.096 120.421 187.824C120.867 188.575 120.773 189.42 120.421 190.109C119.528 191.862 117.132 192.754 114.688 192.777C112.245 192.809 109.746 192.104 107.35 191.314Z"
            fill="#D27C7B" />
        <path
            d="M103.732 203.952C101.037 203.545 97.6385 201.041 96.2288 198.044C95.8372 197.222 95.5318 196.307 95.4691 195.352C95.4143 194.397 95.6336 193.38 96.1818 192.73C96.7457 192.065 97.5758 191.878 98.3433 191.987C100.293 192.261 101.915 194.241 102.729 196.541C103.559 198.842 103.708 201.432 103.732 203.952Z"
            fill="#D27C7B" />
        <path
            d="M103.309 204.108C104.186 201.526 107.248 198.631 110.451 197.77C111.328 197.535 112.284 197.387 113.239 197.496C114.195 197.606 115.158 198.013 115.691 198.662C116.247 199.335 116.286 200.188 116.043 200.924C115.424 202.794 113.192 204.038 110.78 204.437C108.376 204.844 105.799 204.531 103.309 204.108Z"
            fill="#D27C7B" />
        <path
            d="M101.813 217.693C99.0874 217.67 95.3751 215.666 93.5503 212.896C93.0491 212.137 92.6105 211.276 92.4226 210.337C92.2268 209.398 92.3129 208.358 92.7593 207.645C93.2292 206.91 94.0202 206.605 94.7956 206.605C96.7613 206.605 98.6488 208.334 99.7844 210.494C100.92 212.654 101.429 215.197 101.813 217.693Z"
            fill="#D27C7B" />
        <path
            d="M101.413 217.904C101.915 215.228 104.546 211.926 107.6 210.627C108.438 210.267 109.363 209.993 110.318 209.97C111.281 209.946 112.284 210.212 112.91 210.783C113.552 211.37 113.709 212.208 113.576 212.974C113.231 214.907 111.187 216.457 108.861 217.192C106.535 217.92 103.935 217.967 101.413 217.904Z"
            fill="#D27C7B" />
        <path
            d="M102.439 230.347C100.301 230.777 97.0668 229.814 95.195 227.952C94.6781 227.436 94.2004 226.841 93.8949 226.137C93.5895 225.432 93.4798 224.611 93.7226 223.977C93.9654 223.319 94.5371 222.96 95.148 222.826C96.683 222.506 98.4451 223.546 99.6825 225.057C100.912 226.559 101.727 228.461 102.439 230.347Z"
            fill="#D27C7B" />
        <path
            d="M102.157 230.581C102.11 228.406 103.63 225.393 105.799 223.875C106.394 223.46 107.068 223.093 107.82 222.913C108.564 222.74 109.402 222.78 109.981 223.124C110.584 223.484 110.843 224.11 110.858 224.728C110.905 226.301 109.566 227.843 107.859 228.797C106.159 229.752 104.139 230.221 102.157 230.581Z"
            fill="#D27C7B" />
        <path
            d="M141.355 305.497C142.832 300.801 144.72 296.247 146.979 291.866C149.21 287.541 151.803 283.398 154.711 279.483C157.647 275.529 160.907 271.815 164.435 268.385C167.943 264.985 171.718 261.851 175.732 259.06C179.745 256.269 183.988 253.802 188.411 251.725C188.964 251.468 189.517 251.211 190.07 250.963C190.327 250.849 190.108 250.477 189.86 250.592C185.341 252.602 181.004 255.002 176.895 257.745C172.815 260.47 168.963 263.537 165.379 266.89C161.794 270.243 158.476 273.882 155.473 277.768C152.451 281.673 149.734 285.827 147.389 290.17C145.054 294.485 143.08 299 141.507 303.639C141.307 304.22 141.126 304.792 140.935 305.373C140.859 305.64 141.269 305.754 141.355 305.497Z"
            fill="#F2994A" />
        <path
            d="M186.829 252.478C187.601 249.249 190.995 245.4 194.78 244C195.819 243.619 196.954 243.333 198.126 243.362C199.299 243.39 200.509 243.771 201.234 244.505C201.987 245.257 202.121 246.286 201.911 247.201C201.377 249.534 198.803 251.287 195.924 252.04C193.045 252.802 189.889 252.706 186.829 252.478Z"
            fill="#F2994A" />
        <path
            d="M177.267 258.193C175.16 255.631 174.121 250.601 175.294 246.743C175.618 245.676 176.076 244.6 176.8 243.686C177.525 242.771 178.564 242.038 179.584 241.895C180.642 241.752 181.538 242.257 182.148 242.981C183.683 244.819 183.54 247.925 182.406 250.668C181.271 253.43 179.298 255.888 177.267 258.193Z"
            fill="#F2994A" />
        <path
            d="M176.752 257.993C179.65 256.374 184.779 256.24 188.383 258.069C189.374 258.574 190.356 259.212 191.128 260.089C191.901 260.965 192.444 262.108 192.396 263.137C192.349 264.204 191.691 264.994 190.871 265.471C188.793 266.661 185.752 265.966 183.244 264.366C180.747 262.775 178.668 260.393 176.752 257.993Z"
            fill="#F2994A" />
        <path
            d="M164.636 268.452C162.157 266.242 160.374 261.432 160.937 257.441C161.089 256.345 161.375 255.212 161.957 254.192C162.538 253.173 163.444 252.287 164.435 252.001C165.455 251.697 166.428 252.068 167.133 252.687C168.935 254.269 169.269 257.364 168.563 260.251C167.867 263.137 166.294 265.861 164.636 268.452Z"
            fill="#F2994A" />
        <path
            d="M164.102 268.328C166.714 266.28 171.766 265.375 175.608 266.633C176.666 266.976 177.725 267.461 178.63 268.214C179.526 268.966 180.241 270.014 180.356 271.033C180.47 272.091 179.946 272.977 179.202 273.567C177.334 275.063 174.226 274.834 171.499 273.643C168.773 272.443 166.361 270.414 164.102 268.328Z"
            fill="#F2994A" />
        <path
            d="M153.519 281.169C150.754 279.33 148.314 274.815 148.304 270.786C148.304 269.681 148.428 268.509 148.857 267.423C149.286 266.337 150.058 265.337 151.002 264.908C151.975 264.47 152.985 264.689 153.767 265.204C155.769 266.518 156.532 269.528 156.246 272.491C155.969 275.444 154.787 278.368 153.519 281.169Z"
            fill="#F2994A" />
        <path
            d="M152.967 281.121C155.264 278.73 160.145 277.12 164.121 277.825C165.217 278.016 166.332 278.349 167.333 278.968C168.325 279.587 169.183 280.521 169.431 281.521C169.698 282.55 169.297 283.502 168.649 284.188C167.009 285.931 163.892 286.151 161.032 285.341C158.172 284.541 155.493 282.864 152.967 281.121Z"
            fill="#F2994A" />
        <path
            d="M145.702 294.476C143.242 293.485 140.583 290.361 139.925 287.208C139.744 286.341 139.648 285.408 139.81 284.493C139.973 283.579 140.411 282.664 141.078 282.169C141.765 281.664 142.594 281.674 143.29 281.95C145.073 282.645 146.169 284.884 146.427 287.246C146.684 289.599 146.245 292.075 145.702 294.476Z"
            fill="#F2994A" />
        <path
            d="M145.263 294.523C146.674 292.275 150.221 290.218 153.443 290.123C154.33 290.094 155.264 290.17 156.141 290.485C157.018 290.808 157.838 291.399 158.2 292.142C158.572 292.904 158.419 293.714 158.029 294.361C157.028 295.99 154.635 296.667 152.261 296.514C149.897 296.352 147.532 295.476 145.263 294.523Z"
            fill="#F2994A" />
        <path
            d="M100.69 317.94C95.8661 318.95 90.966 319.55 86.0468 319.731C81.1753 319.912 76.2942 319.693 71.4608 319.084C66.5702 318.474 61.7368 317.455 57.0083 316.064C52.3179 314.683 47.7324 312.93 43.328 310.806C38.9236 308.682 34.6908 306.196 30.7058 303.366C30.2101 303.014 29.7144 302.652 29.2282 302.29C29.0089 302.128 28.7801 302.49 29.0089 302.652C32.9748 305.595 37.198 308.196 41.612 310.425C45.9973 312.635 50.5542 314.492 55.2351 315.969C59.916 317.445 64.7208 318.541 69.5828 319.255C74.4734 319.969 79.4211 320.293 84.3689 320.198C89.2786 320.112 94.1787 319.617 99.0026 318.703C99.6032 318.588 100.204 318.474 100.795 318.341C101.062 318.302 100.966 317.883 100.69 317.94Z"
            fill="#F2994A" />
        <path
            d="M32.145 304.376C28.9513 305.291 23.9273 304.224 20.848 301.614C19.9995 300.899 19.1987 300.042 18.6458 299.013C18.0929 297.985 17.8355 296.737 18.1119 295.746C18.4075 294.717 19.2273 294.098 20.133 293.831C22.4305 293.155 25.2238 294.527 27.2925 296.67C29.3708 298.804 30.8389 301.604 32.145 304.376Z"
            fill="#F2994A" />
        <path
            d="M41.8212 309.892C40.62 312.987 36.7495 316.35 32.8122 317.236C31.7254 317.474 30.5623 317.607 29.4088 317.426C28.2553 317.245 27.1017 316.702 26.4821 315.883C25.8433 315.035 25.8433 313.997 26.1675 313.121C27.0159 310.882 29.7901 309.482 32.7455 309.12C35.7008 308.749 38.8182 309.263 41.8212 309.892Z"
            fill="#F2994A" />
        <path
            d="M41.8977 310.444C39.0567 308.72 36.4255 304.31 36.2539 300.28C36.2063 299.175 36.2825 298.004 36.6734 296.899C37.0643 295.794 37.7888 294.756 38.7135 294.298C39.6669 293.813 40.6869 294.003 41.4877 294.479C43.5469 295.708 44.4335 298.69 44.2715 301.652C44.1094 304.624 43.0512 307.596 41.8977 310.444Z"
            fill="#F2994A" />
        <path
            d="M56.9694 315.855C56.2544 319.093 52.9368 323.008 49.1806 324.485C48.151 324.885 47.0166 325.199 45.844 325.19C44.6714 325.18 43.4606 324.828 42.717 324.113C41.9544 323.37 41.7923 322.351 41.9925 321.427C42.4882 319.084 45.0241 317.274 47.8841 316.464C50.7441 315.655 53.8996 315.683 56.9694 315.855Z"
            fill="#F2994A" />
        <path
            d="M57.1219 316.378C54.0522 315.111 50.7823 311.149 50.0005 307.196C49.7813 306.11 49.6859 304.938 49.8957 303.795C50.1054 302.642 50.6774 301.509 51.5163 300.909C52.3839 300.29 53.4135 300.309 54.2905 300.671C56.5118 301.566 57.8465 304.386 58.1325 307.339C58.4185 310.291 57.8274 313.397 57.1219 316.378Z"
            fill="#F2994A" />
        <path
            d="M73.5101 319.293C73.2623 322.598 70.5262 326.942 67.0179 328.933C66.0551 329.476 64.9778 329.942 63.8147 330.095C62.6517 330.257 61.4028 330.076 60.5639 329.466C59.7059 328.838 59.4008 327.847 59.4675 326.913C59.6296 324.522 61.8795 322.379 64.606 321.179C67.3135 319.969 70.4499 319.56 73.5101 319.293Z"
            fill="#F2994A" />
        <path
            d="M73.7391 319.798C70.5264 318.969 66.7321 315.512 65.3975 311.701C65.0352 310.653 64.7683 309.51 64.8159 308.348C64.8636 307.177 65.264 305.976 66.0076 305.262C66.7798 304.529 67.8094 304.405 68.7246 304.633C71.0507 305.214 72.7667 307.805 73.4722 310.701C74.1681 313.587 74.0156 316.74 73.7391 319.798Z"
            fill="#F2994A" />
        <path
            d="M88.9543 319.56C89.307 322.189 87.877 326.037 85.4555 328.161C84.7882 328.742 84.0255 329.285 83.1389 329.6C82.2619 329.914 81.2418 329.981 80.4982 329.638C79.726 329.285 79.3256 328.561 79.2207 327.818C78.9538 325.923 80.3647 323.875 82.3 322.494C84.2162 321.103 86.5995 320.265 88.9543 319.56Z"
            fill="#F2994A" />
        <path
            d="M89.2114 319.912C86.5611 319.788 83.0243 317.712 81.3559 314.949C80.8983 314.187 80.5075 313.34 80.3549 312.425C80.2024 311.501 80.3168 310.501 80.7839 309.815C81.2701 309.11 82.0519 308.853 82.805 308.882C84.7212 308.948 86.4849 310.701 87.5049 312.844C88.525 314.988 88.9254 317.483 89.2114 319.912Z"
            fill="#F2994A" />
        <path
            d="M105.517 308.834C97.6307 309.734 89.5719 307.762 82.539 304.084C75.5061 300.406 69.4366 295.077 64.158 289.146C48.0873 271.101 39.0652 246.952 39.3707 222.803C43.31 222.263 47.2807 223.46 50.9851 224.892C65.043 230.323 77.6207 239.541 87.0344 251.31C96.4481 263.08 102.666 277.369 104.867 292.276C105.478 296.462 106.394 304.695 105.517 308.834Z"
            fill="#6FCF97" />
        <path
            d="M44.3986 227.897C52.6297 237.616 59.9445 248.055 67.0714 258.588C74.206 269.129 81.1919 279.787 88.8122 289.983C93.0726 295.68 97.5289 301.236 102.298 306.518C102.721 306.987 103.504 306.369 103.074 305.9C94.5528 296.454 87.0422 286.164 79.8449 275.694C72.6319 265.2 65.7008 254.503 58.2607 244.158C54.1021 238.375 49.779 232.71 45.1739 227.279C44.7589 226.786 43.9835 227.404 44.3986 227.897Z"
            fill="white" />
        <path
            d="M92.2503 293.34C88.1856 292.44 84.1915 291.251 80.2991 289.787C76.4067 288.332 72.6084 286.61 68.951 284.623C66.8834 283.496 64.855 282.291 62.8814 281.007C62.3488 280.663 61.7615 281.461 62.3019 281.813C65.8496 284.114 69.554 286.172 73.3837 287.956C77.2056 289.74 81.1528 291.259 85.1939 292.495C87.4886 293.199 89.8068 293.802 92.1485 294.326C92.4069 294.381 92.6654 294.13 92.6967 293.888C92.7202 293.598 92.5166 293.403 92.2503 293.34Z"
            fill="white" />
        <path
            d="M84.5126 282.095C85.147 278.143 85.0295 274.106 84.4421 270.154C83.8391 266.139 82.774 262.211 81.5522 258.353C80.863 256.162 80.119 253.987 79.3672 251.819C79.1557 251.217 78.2472 251.608 78.4587 252.21C79.7666 255.99 81.0588 259.777 82.0691 263.643C83.0716 267.47 83.7999 271.39 83.933 275.358C84.0114 277.572 83.8782 279.802 83.5258 281.986C83.424 282.619 84.4108 282.729 84.5126 282.095Z"
            fill="white" />
        <path
            d="M71.4493 263.573C66.1864 261.71 61.1819 259.159 56.6004 255.974C55.316 255.082 54.0629 254.143 52.849 253.157C52.3556 252.758 51.7682 253.556 52.2694 253.963C56.6395 257.5 61.4874 260.458 66.6328 262.728C68.0973 263.377 69.5853 263.964 71.0968 264.496C71.6921 264.715 72.0523 263.784 71.4493 263.573Z"
            fill="white" />
        <path
            d="M62.8501 250.371C62.7404 244.847 61.4639 239.377 59.1692 234.353C58.5192 232.937 57.7908 231.567 56.9842 230.237C56.6552 229.689 55.8094 230.214 56.1383 230.761C58.9264 235.339 60.7669 240.496 61.503 245.809C61.7145 247.335 61.832 248.861 61.8633 250.403C61.8711 251.044 62.8658 251.013 62.8501 250.371Z"
            fill="white" />
        <g clip-path="url(#clip1_1_21)">
            <path
                d="M181.428 83.5943H178.675L176.911 84.4118H132.367V122.746C132.367 123.396 132.755 123.957 133.31 124.215H150.734C151.278 124.215 151.79 124.5 152.054 124.977C152.531 125.837 153.447 126.419 154.5 126.419C155.553 126.419 156.469 125.837 156.946 124.977C157.209 124.5 157.722 124.215 158.266 124.215H181.427C182.292 124.215 183 123.507 183 122.643V85.1667C183 84.3019 182.292 83.5943 181.428 83.5943Z"
                fill="#40BFFF" />
            <path
                d="M132.414 122.643V85.1667C132.414 84.8935 132.485 84.6362 132.609 84.4118H131.724L130.325 83.5943H127.572C126.708 83.5943 126 84.3019 126 85.1667V122.643C126 123.507 126.708 124.215 127.572 124.215H133.987C133.122 124.215 132.414 123.507 132.414 122.643Z"
                fill="#40BFFF" />
            <path
                d="M177.347 80.5805H163.144C162.155 80.5805 161.181 80.7091 160.243 80.9545L159.708 81.8843V117.304L160.846 116.73H176.987L178.675 115.157V81.9091C178.675 81.1754 178.081 80.5805 177.347 80.5805Z"
                fill="#EBF0FF" />
            <path
                d="M160.243 80.9545C158.036 81.5316 156.028 82.7591 154.5 84.5115L153.132 84.847V117.542L154.5 119.927L160.243 117.034V80.9545Z"
                fill="#D3E4F3" />
            <path
                d="M154.5 92.3706V84.5115C152.322 82.0139 149.17 80.5805 145.856 80.5805H136.171L135.451 81.3682V116.348H147.654L154.5 119.927V105.868L149.693 103.736V94.5019L154.5 92.3706Z"
                fill="#EBF0FF" />
            <path
                d="M136.17 80.5805H131.653C130.919 80.5805 130.325 81.1754 130.325 81.9091V115.157L131.897 116.348H136.17V80.5805H136.17Z"
                fill="#D3E4F3" />
            <path
                d="M143.228 99.3872H145.083L145.334 99.2696V96.0674L145.025 95.6805H143.224C142.065 95.6805 141.098 96.5383 140.922 97.6502C141.213 98.65 142.137 99.3872 143.228 99.3872Z"
                fill="#00B0F0" />
            <path
                d="M143.224 99.3323C142.115 99.3323 141.182 98.5477 140.948 97.5064C140.911 97.6702 140.89 97.8399 140.89 98.0143V100.224C140.89 101.508 141.941 102.558 143.224 102.558H145.026L145.334 102.413V99.1878L145.026 99.3323H143.224Z"
                fill="#40BFFF" />
            <path
                d="M135.451 118.756L136.17 119.927H154.5C152.322 117.43 149.17 115.157 145.856 115.157H135.451V118.756Z"
                fill="#D3E4F3" />
            <path
                d="M136.17 115.157H130.325V118.599C130.325 119.333 130.919 119.927 131.653 119.927H136.171V115.157H136.17Z"
                fill="#D3E4F3" />
            <path
                d="M163.144 115.157C161.966 115.157 160.809 115.445 159.708 115.928V119.158L160.243 119.927H177.347C178.081 119.927 178.675 119.333 178.675 118.599V115.157H163.144Z"
                fill="#D3E4F3" />
            <path d="M160.243 115.71C158.036 116.534 156.028 118.175 154.5 119.927H160.243V115.71Z" fill="#D3E4F3" />
            <g filter="url(#filter0_d_1_21)">
                <path
                    d="M163.447 101.074C163.111 100.738 163.111 100.194 163.447 99.8579C163.645 99.6605 163.753 99.3982 163.753 99.1191C163.753 98.84 163.645 98.5776 163.447 98.3802C163.111 98.0442 163.111 97.4997 163.447 97.1636C163.783 96.8279 164.328 96.8279 164.664 97.1636C165.186 97.686 165.474 98.3805 165.474 99.119C165.474 99.8576 165.186 100.552 164.664 101.074C164.328 101.41 163.783 101.41 163.447 101.074Z"
                    fill="#D3E4F3" />
            </g>
            <g filter="url(#filter1_d_1_21)">
                <path
                    d="M165.801 103.429C165.465 103.093 165.465 102.548 165.801 102.212C167.507 100.507 167.507 97.7316 165.801 96.0262C165.465 95.6902 165.465 95.1457 165.801 94.8096C166.137 94.4739 166.682 94.4739 167.018 94.8096C169.394 97.1859 169.394 101.052 167.018 103.429C166.682 103.765 166.137 103.764 165.801 103.429Z"
                    fill="#D3E4F3" />
            </g>
            <g filter="url(#filter2_d_1_21)">
                <path
                    d="M168.155 105.783C167.819 105.447 167.819 104.902 168.155 104.566C169.608 103.114 170.408 101.179 170.408 99.1191C170.408 97.059 169.608 95.1246 168.155 93.6723C167.819 93.3363 167.819 92.7918 168.155 92.4557C168.491 92.1199 169.036 92.1199 169.372 92.4557C171.149 94.233 172.128 96.5994 172.128 99.1191C172.128 101.639 171.149 104.005 169.372 105.783C169.036 106.118 168.491 106.119 168.155 105.783Z"
                    fill="#D3E4F3" />
            </g>
            <g filter="url(#filter3_d_1_21)">
                <path
                    d="M149.453 99.2124L157.742 102.887L158.16 102.491V91.4898L157.52 91.0315L149.693 94.5019L149.357 95.0446V99.0312L149.453 99.2124Z"
                    fill="#D3E4F3" />
                <path
                    d="M149.693 99.1752L149.357 98.5403V103.102L149.693 103.736L157.52 107.207L158.16 106.6V102.038L157.52 102.645L149.693 99.1752Z"
                    fill="#D3E4F3" />
                <path
                    d="M158.612 104.342H159.754C160.236 104.342 160.653 104.054 160.846 103.643V91.0317C160.846 90.4109 160.338 89.9031 159.717 89.9031H158.648C158.027 89.9031 157.52 90.4109 157.52 91.0317V103.643C157.712 104.054 158.129 104.342 158.612 104.342Z"
                    fill="#EBF0FF" />
                <path
                    d="M159.717 104.264H158.648C158.027 104.264 157.52 103.756 157.52 103.135V107.207C157.52 107.827 158.027 108.335 158.648 108.335H159.717C160.338 108.335 160.846 107.827 160.846 107.207V103.135C160.846 103.756 160.338 104.264 159.717 104.264Z"
                    fill="#D3E4F3" />
            </g>
            <path
                d="M146.562 99.6487H149.693V94.502H146.587C145.689 94.502 144.962 95.2298 144.962 96.1274V98.4816C145.179 99.1584 145.813 99.6487 146.562 99.6487Z"
                fill="#00B0F0" />
            <path
                d="M144.962 97.9679V102.111C144.962 103.009 145.69 103.736 146.587 103.736H149.693V99.5933H146.587C145.689 99.5933 144.962 98.8656 144.962 97.9679Z"
                fill="#40BFFF" />
        </g>
        <ellipse cx="115.535" cy="351.971" rx="95.1279" ry="17.4244" fill="#CBD0DF" />
        <path
            d="M116.4 167.385C115.8 167.235 114.6 167.535 114.6 167.535C114.6 167.535 109.5 178.785 108.15 179.085C106.8 179.385 119.7 188.385 119.85 188.235C120 188.085 121.8 182.835 122.25 182.235C122.7 181.635 123.3 177.585 123 176.685C122.7 175.785 117 167.535 116.4 167.385Z"
            fill="#E28989" />
        <path
            d="M114.15 179.685C106.2 174.135 96 189.135 91.8 198.285C87.6 207.435 94.2 230.385 94.5 230.985C94.8 231.585 121.2 230.985 122.25 228.585C123.3 226.185 123.15 224.385 123.3 214.935C123.45 205.485 121.05 194.685 120.45 190.785C119.85 186.885 116.782 181.522 114.15 179.685Z"
            fill="#ACACAC" />
        <path
            d="M129.086 155.165C124.649 154.049 117.675 153.819 115.384 156.676C113.093 159.533 113.855 162.814 114.708 165.876C115.56 168.938 120.111 179.051 126.053 180.897C130.952 182.42 130.972 178.663 130.972 178.663C130.972 178.663 132.071 176.902 133.143 174.529C133.253 174.284 134.388 174.948 134.697 174.572C136.207 172.729 134.403 168.928 134.378 166.785C134.321 161.896 133.523 156.282 129.086 155.165Z"
            fill="#E28989" />
        <path
            d="M131.367 165.423C131.584 165.437 131.746 165.65 131.73 165.898C131.714 166.146 131.525 166.335 131.308 166.321C131.091 166.307 130.928 166.094 130.944 165.847C130.961 165.599 131.15 165.409 131.367 165.423Z"
            fill="#171616" />
        <path
            d="M132.427 150.047C130.979 149.201 122.925 148.224 123.739 151.885C124.552 155.546 127.337 156.629 128.118 158.484C128.899 160.339 130.694 165.068 134.507 166.519C138.321 167.971 142.424 171.1 144.263 165.959C146.102 160.818 143.763 159.812 142.904 159.154C142.045 158.497 139.34 158.206 138.403 157.504C135.107 155.034 133.875 150.893 132.427 150.047Z"
            fill="#341B07" />
        <path
            d="M123.62 145.413C117.467 144.11 117.46 149.972 117.455 150.047C117.45 150.121 114.315 148.639 111.181 151.741C108.047 154.844 110.448 159.51 110.583 159.744C110.719 159.979 112.113 161.874 112.259 163.086C112.406 164.298 113.4 168.647 113.315 168.792C113.23 168.937 115.845 169.182 115.929 169.038C116.014 168.893 116.312 167.785 115.835 165.875C115.359 163.965 114.427 160.973 118.338 160.927C122.249 160.882 121.162 164.87 121.162 164.87L123.611 164.203C123.611 164.203 124.488 163.433 124.158 162.735C123.827 162.037 122.218 160.204 123.2 158.99C124.181 157.776 126.325 157.165 127.199 157.597C128.072 158.03 133.375 157.399 133.757 156.147C134.14 154.894 133.88 150.818 132.576 150.057C131.273 149.295 129.773 146.717 123.62 145.413Z"
            fill="#341B07" />
        <path
            d="M123.997 164.04C124.112 164.01 121.851 163.524 121.289 164.652C120.727 165.781 118.964 173.783 120.554 176.48C122.145 179.177 126.026 181.309 127.568 181.297C129.11 181.285 130.645 180.22 130.784 179.816C130.923 179.411 131.25 177.854 131.728 177.435C132.207 177.015 132.933 175.108 132.933 175.108C132.933 175.108 132.761 173.707 130.508 173.109C128.254 172.51 126.603 174.206 126.434 174.496C126.264 174.786 124.374 174.963 124.069 174.454C123.764 173.946 122.539 173.716 122.436 171.266C122.332 168.817 123.882 164.07 123.997 164.04Z"
            fill="#341B07" />
        <path
            d="M133.611 328.242L136.201 342.935L170.519 336.885L173.19 336.414C173.19 336.414 173.34 329.893 165.35 330.121C157.361 330.348 155.654 331.166 153.488 329.142C152.257 327.991 151.692 326.25 151.438 325.061C151.283 324.339 150.595 323.867 149.869 323.994L134.715 326.666C133.974 326.796 133.48 327.502 133.611 328.242Z"
            fill="#223263" />
        <path
            d="M149.75 328.914C149.806 329.234 150.11 329.448 150.43 329.391C150.751 329.336 150.964 329.031 150.908 328.71C150.851 328.39 150.546 328.177 150.226 328.234C149.907 328.29 149.693 328.594 149.75 328.914Z"
            fill="white" />
        <path
            d="M151.977 331.167C152.033 331.487 152.339 331.7 152.658 331.644C152.979 331.588 153.192 331.283 153.136 330.962C153.079 330.642 152.775 330.429 152.454 330.486C152.135 330.542 151.921 330.847 151.977 331.167Z"
            fill="white" />
        <path
            d="M155.581 332.161C155.637 332.481 155.942 332.694 156.262 332.638C156.582 332.582 156.795 332.277 156.738 331.957C156.683 331.637 156.378 331.424 156.058 331.48C155.738 331.536 155.524 331.841 155.581 332.161Z"
            fill="white" />
        <path
            d="M159.563 332.057C159.619 332.377 159.924 332.59 160.244 332.534C160.564 332.477 160.777 332.172 160.721 331.852C160.664 331.533 160.36 331.319 160.04 331.376C159.72 331.432 159.506 331.736 159.563 332.057Z"
            fill="white" />
        <path d="M135.23 345.104L150.063 342.059L150.386 343.822L135.39 346.45L135.23 345.104Z" fill="#223263" />
        <path
            d="M134.804 343.151L135.233 345.684L164.44 340.504L175.167 338.601L174.763 336.102L164.145 337.975L134.804 343.151Z"
            fill="#223263" />
        <path
            d="M136.112 342.726C136.112 342.726 158.895 338.795 162.327 338.176C165.759 337.557 173.105 336.237 173.105 336.237"
            stroke="white" stroke-width="2.1" />
        <path
            d="M121.348 285.403C124.121 297.569 132.939 329.532 133.325 329.992C133.711 330.451 154.506 323.96 155.039 322.729C155.572 321.498 145.987 278.442 144.421 275.644C144.363 275.541 142.494 273.599 141.143 273.095C135.605 271.464 119.06 275.359 121.348 285.403Z"
            fill="#080835" />
        <path
            d="M121.348 285.403C124.121 297.569 132.939 329.532 133.325 329.992C133.711 330.451 154.506 323.96 155.039 322.729C155.572 321.498 145.987 278.442 144.421 275.644C144.363 275.541 142.494 273.599 141.143 273.095C135.605 271.464 119.06 275.359 121.348 285.403Z"
            fill="#080835" />
        <path
            d="M105.783 242.037C105.912 244.864 99.8222 243.964 120.091 282.83C120.408 283.438 124.263 292.658 133.915 290.988C143.042 289.409 145.768 279.742 145.05 277.269C143.728 272.714 129.014 240.768 121.307 223.576C119.589 219.744 105.654 239.21 105.783 242.037Z"
            fill="#080835" />
        <path
            d="M105.783 242.037C105.912 244.864 99.8222 243.964 120.091 282.83C120.408 283.438 124.263 292.658 133.915 290.988C143.042 289.409 145.768 279.742 145.05 277.269C143.728 272.714 129.014 240.768 121.307 223.576C119.589 219.744 105.654 239.21 105.783 242.037Z"
            fill="#080835" />
        <path
            d="M73.4594 313.215L64.0563 324.797C64.0563 324.797 85.4575 341.049 86.9562 341.98C88.5838 342.99 94.5751 346.552 94.5751 346.552C94.5751 346.552 99.5829 341.617 93.3477 337.3C87.6469 333.267 84.9421 331.755 85.4391 328.761C85.7002 327.116 86.8097 325.57 87.5422 324.599C87.9866 324.01 87.8926 323.18 87.32 322.715L75.3737 313.016C74.7901 312.542 73.9331 312.631 73.4594 313.215Z"
            fill="#161551" />
        <path
            d="M61.3909 325.848C61.3909 325.848 76.8047 338.151 82.9894 342.833C88.8904 347.33 94.209 349.199 94.209 349.199L95.3871 347.169C95.3871 347.169 90.9758 344.385 85.1933 340.24C79.5338 336.167 63.0601 324.031 63.0601 324.031L61.3909 325.848Z"
            fill="#161551" />
        <path
            d="M83.5241 325.848C83.3189 326.1 83.358 326.471 83.61 326.675C83.8618 326.88 84.2324 326.842 84.4369 326.589C84.6421 326.337 84.6034 325.967 84.351 325.762C84.0991 325.557 83.7284 325.596 83.5241 325.848Z"
            fill="white" />
        <path
            d="M83.2815 329.007C83.0768 329.259 83.115 329.63 83.3674 329.834C83.6198 330.039 83.9904 330.001 84.1948 329.748C84.3996 329.496 84.361 329.126 84.109 328.921C83.8566 328.716 83.4863 328.755 83.2815 329.007Z"
            fill="white" />
        <path
            d="M84.6774 332.427C84.4726 332.68 84.5112 333.05 84.7632 333.254C85.0151 333.459 85.3857 333.421 85.5901 333.168C85.7953 332.917 85.7567 332.546 85.5043 332.342C85.2519 332.137 84.8817 332.175 84.6774 332.427Z"
            fill="white" />
        <path
            d="M87.4211 335.125C87.2159 335.377 87.2546 335.747 87.5069 335.952C87.7593 336.156 88.1299 336.118 88.3344 335.865C88.5392 335.613 88.5 335.243 88.2485 335.038C87.9961 334.834 87.6259 334.872 87.4211 335.125Z"
            fill="white" />
        <path d="M61.9474 325.163L73.7982 334.698L72.513 336.094L60.746 326.572L61.9474 325.163Z" fill="#161551" />
        <path
            d="M64.0744 324.831C64.0744 324.831 79.0476 337.262 84.2888 340.832C88.1501 343.602 94.4307 346.685 94.4307 346.685"
            stroke="white" stroke-width="1.344" />
        <path
            d="M115.635 277.587C111.285 274.531 101.96 275.01 101.96 275.01C101.96 275.01 70.88 311.683 70.806 313.275C70.7319 314.868 89.5116 328.102 89.8158 328.243C90.12 328.384 122.434 294.433 122.662 292.427C123.188 287.79 119.985 280.643 115.635 277.587Z"
            fill="#223263" />
        <path
            d="M115.635 277.587C111.285 274.531 101.96 275.01 101.96 275.01C101.96 275.01 70.88 311.683 70.806 313.275C70.7319 314.868 89.5116 328.102 89.8158 328.243C90.12 328.384 122.434 294.433 122.662 292.427C123.188 287.79 119.985 280.643 115.635 277.587Z"
            fill="#223263" />
        <path
            d="M122.965 223.997C122.919 223.358 97.3119 220.305 94.4794 223.534C91.6469 226.763 90.2527 230.418 91.2042 238.834C92.1556 247.249 98.7104 278.02 98.7411 278.919C98.7816 280.104 99.4905 281.409 99.076 283.868C98.8594 285.152 102.03 297.393 113.567 297.531C125.105 297.669 126.437 285.236 126.437 285.236C126.437 285.236 125.984 271.963 124.891 267.728C123.797 263.494 121.447 234.955 121.447 234.955C121.447 234.955 123.01 224.636 122.965 223.997Z"
            fill="#223263" />
        <path
            d="M122.965 223.997C122.919 223.358 97.3119 220.305 94.4794 223.534C91.6469 226.763 90.2527 230.418 91.2042 238.834C92.1556 247.249 98.7104 278.02 98.7411 278.919C98.7816 280.104 99.4905 281.409 99.076 283.868C98.8594 285.152 102.03 297.393 113.567 297.531C125.105 297.669 126.437 285.236 126.437 285.236C126.437 285.236 125.984 271.963 124.891 267.728C123.797 263.494 121.447 234.955 121.447 234.955C121.447 234.955 123.01 224.636 122.965 223.997Z"
            fill="#223263" />
        <path
            d="M123.6 224L89.625 226.704L88.95 230.01C88.95 230.01 122.303 230.039 123.45 228.507C123.675 228.207 123.6 224 123.6 224Z"
            fill="#ACACAC" />
        <path
            d="M141.824 207.968L155.225 194.558C155.584 194.199 156.163 194.19 156.532 194.539L156.743 194.738C157.127 195.1 157.136 195.709 156.763 196.082L143.339 209.522C142.949 209.913 142.305 209.883 141.953 209.457L141.764 209.228C141.456 208.856 141.482 208.31 141.824 207.968Z"
            fill="#0F1029" />
        <path
            d="M130.938 212.437L137.684 211.015C137.934 209.223 141.345 206.071 142.706 204.877C143.242 204.406 144.108 204.747 144.141 205.46C144.154 205.726 144.107 206.061 143.97 206.478C143.97 206.478 148.945 205.561 147.839 208.89C147.839 208.89 149.782 209.422 148.811 211.509C148.811 211.509 150.342 212.071 149.346 214.047C149.346 214.047 150.259 215.413 148.365 217.118C146.47 218.822 140.011 218.472 140.011 218.472L131.922 221.016L130.938 212.437Z"
            fill="#E18888" />
        <path
            d="M112.266 180.538C109.566 179.113 106.61 180.836 105.066 182.038C96.5914 188.638 91.8664 199.138 88.8664 208.138C85.8664 217.138 88.5664 224.338 88.5664 224.488C88.5664 224.638 90.9763 227.979 96.2164 223.438C102.966 217.588 115.716 191.338 115.866 190.738C116.016 190.138 118.091 183.612 112.266 180.538Z"
            fill="#E4DFDF" />
        <path
            d="M133.174 208.772C133.03 208.245 130.924 208.745 130.924 208.745C130.924 208.745 122.193 211.34 115.277 212.607C108.361 213.875 102.521 213.055 99.3636 213.617C96.2066 214.179 88.6622 217.839 88.1727 221.133C87.6832 224.428 89.2845 228.497 98.4177 229.957C107.551 231.416 134.05 223.333 134.955 222.894C135.86 222.455 135.577 221.101 135.727 221.103C135.877 221.105 133.318 209.298 133.174 208.772Z"
            fill="#E4DFDF" />
        <circle cx="118.5" cy="164.5" r="1.5" fill="#333333" />
        <rect x="157.549" y="193" width="1" height="2" transform="rotate(50.7824 157.549 193)" fill="black" />
        <path d="M118 164C120.869 185.163 119.386 246.927 144.5 217.5C169.614 188.073 158 193.5 158 193.5"
            stroke="#333333" stroke-linejoin="round" />
        <path d="M110.217 202C107.594 206.491 105 212.5 103.5 213.5C103 213.833 105.5 213 107 213.5" stroke="black"
            stroke-width="0.1" />
        <path d="M89.5 206C88 210.333 86.6667 216.5 88 222.5C88.3333 224 89.0001 228 96.5 229.5" stroke="black"
            stroke-width="0.1" />
    </g>
    <defs>
        <filter id="filter0_d_1_21" x="159.195" y="96.9118" width="10.2784" height="12.4145"
            filterUnits="userSpaceOnUse" color-interpolation-filters="sRGB">
            <feFlood flood-opacity="0" result="BackgroundImageFix" />
            <feColorMatrix in="SourceAlpha" type="matrix" values="0 0 0 0 0 0 0 0 0 0 0 0 0 0 0 0 0 0 127 0"
                result="hardAlpha" />
            <feOffset dy="4" />
            <feGaussianBlur stdDeviation="2" />
            <feComposite in2="hardAlpha" operator="out" />
            <feColorMatrix type="matrix" values="0 0 0 0 0 0 0 0 0 0 0 0 0 0 0 0 0 0 0.25 0" />
            <feBlend mode="normal" in2="BackgroundImageFix" result="effect1_dropShadow_1_21" />
            <feBlend mode="normal" in="SourceGraphic" in2="effect1_dropShadow_1_21" result="shape" />
        </filter>
        <filter id="filter1_d_1_21" x="161.549" y="94.5578" width="11.2506" height="17.1227"
            filterUnits="userSpaceOnUse" color-interpolation-filters="sRGB">
            <feFlood flood-opacity="0" result="BackgroundImageFix" />
            <feColorMatrix in="SourceAlpha" type="matrix" values="0 0 0 0 0 0 0 0 0 0 0 0 0 0 0 0 0 0 127 0"
                result="hardAlpha" />
            <feOffset dy="4" />
            <feGaussianBlur stdDeviation="2" />
            <feComposite in2="hardAlpha" operator="out" />
            <feColorMatrix type="matrix" values="0 0 0 0 0 0 0 0 0 0 0 0 0 0 0 0 0 0 0.25 0" />
            <feBlend mode="normal" in2="BackgroundImageFix" result="effect1_dropShadow_1_21" />
            <feBlend mode="normal" in="SourceGraphic" in2="effect1_dropShadow_1_21" result="shape" />
        </filter>
        <filter id="filter2_d_1_21" x="163.903" y="92.2039" width="12.2245" height="21.8307"
            filterUnits="userSpaceOnUse" color-interpolation-filters="sRGB">
            <feFlood flood-opacity="0" result="BackgroundImageFix" />
            <feColorMatrix in="SourceAlpha" type="matrix" values="0 0 0 0 0 0 0 0 0 0 0 0 0 0 0 0 0 0 127 0"
                result="hardAlpha" />
            <feOffset dy="4" />
            <feGaussianBlur stdDeviation="2" />
            <feComposite in2="hardAlpha" operator="out" />
            <feColorMatrix type="matrix" values="0 0 0 0 0 0 0 0 0 0 0 0 0 0 0 0 0 0 0.25 0" />
            <feBlend mode="normal" in2="BackgroundImageFix" result="effect1_dropShadow_1_21" />
            <feBlend mode="normal" in="SourceGraphic" in2="effect1_dropShadow_1_21" result="shape" />
        </filter>
        <filter id="filter3_d_1_21" x="145.357" y="89.9031" width="19.4882" height="26.4322"
            filterUnits="userSpaceOnUse" color-interpolation-filters="sRGB">
            <feFlood flood-opacity="0" result="BackgroundImageFix" />
            <feColorMatrix in="SourceAlpha" type="matrix" values="0 0 0 0 0 0 0 0 0 0 0 0 0 0 0 0 0 0 127 0"
                result="hardAlpha" />
            <feOffset dy="4" />
            <feGaussianBlur stdDeviation="2" />
            <feComposite in2="hardAlpha" operator="out" />
            <feColorMatrix type="matrix" values="0 0 0 0 0 0 0 0 0 0 0 0 0 0 0 0 0 0 0.25 0" />
            <feBlend mode="normal" in2="BackgroundImageFix" result="effect1_dropShadow_1_21" />
            <feBlend mode="normal" in="SourceGraphic" in2="effect1_dropShadow_1_21" result="shape" />
        </filter>
        <clipPath id="clip0_1_21">
            <rect width="290" height="380" fill="white" />
        </clipPath>
        <clipPath id="clip1_1_21">
            <rect width="57" height="57" fill="white" transform="translate(126 75)" />
        </clipPath>
    </defs>
</svg>