<svg width="290" height="380" viewBox="0 0 290 380" fill="none" xmlns="http://www.w3.org/2000/svg">
    <g clip-path="url(#clip0_1_405)">
        <ellipse cx="145.128" cy="351.424" rx="95.1279" ry="17.4244" fill="#CBD0DF" />
        <path
            d="M92.9222 341.913C67.1011 344.229 43.324 327.138 26.7678 307.207C10.7363 287.91 -1.41063 263.785 0.132219 238.752C1.17383 221.928 8.59045 205.573 20.5651 193.694C29.1408 185.188 40.8414 178.779 52.863 180.023C67.336 181.518 79.0757 193.522 93.5409 195.087C108.272 196.675 121.586 187.254 134.234 179.546C145.622 172.605 158.027 166.626 171.317 165.57C184.616 164.514 198.979 169.193 206.725 180.039C212.755 188.49 214.314 199.759 221.378 207.373C228.755 215.315 240.26 217.42 250.527 220.91C268.015 226.865 284.673 239.542 288.934 257.501C292.92 274.31 285.222 291.901 274.43 305.392C253.997 330.926 221.573 346.451 188.845 346.357C182.117 346.342 175.241 345.661 169.14 342.828"
            fill="#EBF0FF" />
        <g opacity="0.46">
            <path opacity="0.46"
                d="M155.427 146.343C156.453 146.343 156.453 144.747 155.427 144.747C154.401 144.747 154.401 146.343 155.427 146.343Z"
                fill="white" />
        </g>
        <path
            d="M92.4131 320.581C89.6251 323.539 85.811 325.425 81.8404 326.301C77.8697 327.178 73.7346 327.091 69.7091 326.512C57.4524 324.744 45.9477 318.265 38.0847 308.702C39.4474 307.192 41.3975 306.347 43.3241 305.689C50.6232 303.177 58.5959 302.645 66.1691 304.148C73.7424 305.65 80.9006 309.203 86.6803 314.313C88.3172 315.753 91.395 318.671 92.4131 320.581Z"
            fill="#6FCF97" />
        <path
            d="M41.7421 309.046C48.1719 310.134 54.4842 311.817 60.7574 313.585C67.0306 315.361 73.2881 317.232 79.6397 318.711C83.1874 319.54 86.7665 320.244 90.3848 320.737C90.7058 320.784 90.8077 320.283 90.4866 320.236C84.0332 319.352 77.6896 317.795 71.4085 316.066C65.1118 314.336 58.87 312.427 52.542 310.831C49.002 309.938 45.4386 309.148 41.8439 308.538C41.5228 308.491 41.421 308.992 41.7421 309.046Z"
            fill="white" />
        <path
            d="M82.1066 318.891C80.2192 319.877 78.2613 320.73 76.2564 321.442C74.2514 322.154 72.1917 322.733 70.1085 323.163C68.9259 323.406 67.7355 323.601 66.5372 323.75C66.2161 323.789 66.2474 324.298 66.5764 324.259C68.7223 323.993 70.8525 323.578 72.9435 323.015C75.0268 322.451 77.0787 321.747 79.0679 320.894C80.1957 320.409 81.3078 319.884 82.3964 319.313C82.5217 319.251 82.5374 319.063 82.4669 318.961C82.3729 318.836 82.2241 318.828 82.1066 318.891Z"
            fill="white" />
        <path
            d="M75.3557 317.044C74.2984 315.283 72.92 313.742 71.385 312.388C69.8265 311.018 68.1114 309.829 66.3571 308.718C65.3625 308.092 64.3522 307.481 63.3419 306.879C63.0599 306.714 62.8328 307.168 63.1148 307.333C64.8769 308.381 66.6312 309.438 68.3072 310.619C69.9675 311.785 71.5417 313.084 72.9044 314.594C73.664 315.44 74.3532 316.355 74.9328 317.325C75.1051 317.607 75.528 317.325 75.3557 317.044Z"
            fill="white" />
        <path
            d="M64.125 314.094C61.4466 315.103 58.6507 315.753 55.8 316.019C55.0011 316.097 54.2023 316.136 53.4035 316.152C53.0745 316.16 53.1137 316.668 53.4426 316.66C56.3247 316.606 59.1989 316.167 61.9635 315.354C62.7467 315.127 63.5298 314.861 64.2973 314.571C64.5949 314.461 64.4305 313.984 64.125 314.094Z"
            fill="white" />
        <path
            d="M56.3952 311.762C54.5234 309.633 52.2209 307.912 49.6599 306.699C48.9394 306.362 48.1954 306.065 47.4435 305.807C47.1303 305.705 46.9736 306.182 47.2869 306.292C49.8949 307.168 52.3149 308.577 54.3589 310.416C54.9463 310.94 55.4945 311.503 56.0193 312.098C56.2385 312.349 56.6145 312.004 56.3952 311.762Z"
            fill="white" />
        <path
            d="M183.48 335.965C182.337 328.938 183.762 321.629 186.769 315.174C189.777 308.718 194.296 303.052 199.394 298.075C214.901 282.918 236.195 273.809 257.881 273.066C258.531 276.571 257.631 280.179 256.503 283.559C252.219 296.385 244.481 308.045 234.316 316.973C224.15 325.902 211.588 332.076 198.313 334.682C194.578 335.41 187.232 336.576 183.48 335.965Z"
            fill="#6FCF97" />
        <path
            d="M253.519 277.792C245.147 285.578 236.093 292.566 226.938 299.406C217.783 306.245 208.518 312.951 199.684 320.205C194.75 324.259 189.957 328.492 185.415 332.984C185.007 333.383 185.595 334.056 186.002 333.649C194.116 325.612 203.028 318.452 212.121 311.558C221.237 304.649 230.541 297.997 239.508 290.892C244.52 286.924 249.423 282.808 254.106 278.457C254.529 278.066 253.942 277.401 253.519 277.792Z"
            fill="white" />
        <path
            d="M196.817 323.429C197.452 319.751 198.352 316.12 199.496 312.568C200.639 309.015 202.026 305.541 203.655 302.184C204.579 300.282 205.573 298.42 206.638 296.596C206.928 296.103 206.184 295.61 205.894 296.111C203.976 299.382 202.292 302.786 200.851 306.3C199.41 309.798 198.212 313.405 197.28 317.067C196.747 319.149 196.301 321.254 195.932 323.374C195.893 323.609 196.128 323.836 196.348 323.844C196.606 323.86 196.77 323.664 196.817 323.429Z"
            fill="white" />
        <path
            d="M206.576 316.019C210.147 316.418 213.773 316.144 217.29 315.447C220.861 314.743 224.346 313.616 227.761 312.364C229.695 311.652 231.614 310.893 233.532 310.126C234.065 309.915 233.673 309.117 233.141 309.328C229.805 310.658 226.46 311.981 223.03 313.045C219.639 314.101 216.146 314.923 212.598 315.213C210.609 315.377 208.612 315.354 206.631 315.127C206.067 315.064 206.012 315.948 206.576 316.019Z"
            fill="white" />
        <path
            d="M222.646 303.53C224.095 298.74 226.171 294.147 228.833 289.906C229.577 288.716 230.368 287.558 231.199 286.431C231.535 285.97 230.791 285.484 230.455 285.946C227.463 290.015 225.019 294.476 223.195 299.187C222.678 300.525 222.216 301.886 221.801 303.256C221.636 303.796 222.482 304.077 222.646 303.53Z"
            fill="white" />
        <path
            d="M234.128 295.274C239.085 294.937 243.933 293.568 248.35 291.299C249.595 290.657 250.794 289.945 251.953 289.162C252.43 288.842 251.921 288.106 251.444 288.427C247.449 291.119 242.899 292.989 238.169 293.865C236.814 294.116 235.443 294.288 234.065 294.382C233.485 294.421 233.556 295.313 234.128 295.274Z"
            fill="white" />
        <path
            d="M76.6088 293.411C72.6459 294.241 68.6204 294.734 64.5793 294.883C60.5773 295.031 56.5675 294.851 52.5968 294.351C48.5791 293.85 44.6084 293.012 40.7239 291.87C36.8707 290.735 33.1037 289.295 29.4854 287.55C25.8672 285.805 22.3899 283.763 19.1163 281.439C18.709 281.149 18.3018 280.852 17.9023 280.555C17.7222 280.422 17.5343 280.719 17.7222 280.852C20.9802 283.27 24.4496 285.406 28.0757 287.237C31.6783 289.053 35.4219 290.579 39.2672 291.792C43.1126 293.005 47.0598 293.904 51.0539 294.491C55.0716 295.078 59.1362 295.344 63.2009 295.266C67.2342 295.196 71.2597 294.789 75.2226 294.037C75.716 293.944 76.2094 293.85 76.6949 293.74C76.9142 293.709 76.8359 293.365 76.6088 293.411Z"
            fill="#C38821" />
        <path
            d="M20.2989 282.268C17.6752 283.02 13.5479 282.143 11.0183 279.999C10.3213 279.412 9.66341 278.708 9.20917 277.863C8.75493 277.018 8.54348 275.992 8.77059 275.179C9.01338 274.333 9.6869 273.825 10.4309 273.606C12.3184 273.05 14.613 274.177 16.3125 275.938C18.0198 277.69 19.2259 279.991 20.2989 282.268Z"
            fill="#C38821" />
        <path
            d="M28.248 286.799C27.2612 289.342 24.0816 292.105 20.8471 292.832C19.9543 293.028 18.9988 293.138 18.0511 292.989C17.1035 292.84 16.1559 292.394 15.6468 291.721C15.1221 291.025 15.1221 290.172 15.3884 289.452C16.0854 287.613 18.3644 286.463 20.7922 286.165C23.2201 285.86 25.781 286.283 28.248 286.799Z"
            fill="#C38821" />
        <path
            d="M28.3107 287.253C25.9768 285.837 23.8153 282.214 23.6743 278.903C23.6352 277.996 23.6978 277.033 24.0189 276.125C24.34 275.218 24.9352 274.365 25.6949 273.989C26.4781 273.59 27.3161 273.747 27.9739 274.138C29.6656 275.147 30.3939 277.597 30.2608 280.03C30.1276 282.472 29.2583 284.913 28.3107 287.253Z"
            fill="#C38821" />
        <path
            d="M40.6926 291.698C40.1052 294.358 37.3798 297.575 34.2941 298.787C33.4483 299.116 32.5163 299.374 31.553 299.367C30.5897 299.359 29.5951 299.069 28.9842 298.482C28.3577 297.872 28.2245 297.035 28.389 296.276C28.7962 294.351 30.8795 292.864 33.229 292.199C35.5785 291.533 38.1708 291.557 40.6926 291.698Z"
            fill="#C38821" />
        <path
            d="M40.8179 292.128C38.2961 291.087 35.6098 287.832 34.9676 284.585C34.7875 283.692 34.7092 282.73 34.8815 281.791C35.0538 280.844 35.5237 279.913 36.2129 279.42C36.9256 278.911 37.7714 278.927 38.4919 279.224C40.3167 279.96 41.4131 282.276 41.6481 284.702C41.883 287.128 41.3975 289.679 40.8179 292.128Z"
            fill="#C38821" />
        <path
            d="M54.2806 294.523C54.077 297.238 51.8293 300.806 48.9472 302.442C48.1562 302.888 47.2712 303.271 46.3157 303.397C45.3603 303.53 44.3343 303.381 43.6451 302.88C42.9403 302.364 42.6897 301.55 42.7445 300.783C42.8776 298.819 44.7259 297.058 46.9658 296.072C49.19 295.078 51.7666 294.742 54.2806 294.523Z"
            fill="#C38821" />
        <path
            d="M54.4686 294.937C51.8293 294.257 48.7123 291.416 47.6158 288.286C47.3182 287.425 47.0989 286.486 47.1381 285.531C47.1773 284.569 47.5062 283.583 48.1171 282.996C48.7514 282.393 49.5973 282.292 50.3491 282.48C52.26 282.957 53.6697 285.085 54.2493 287.464C54.821 289.835 54.6957 292.426 54.4686 294.937Z"
            fill="#C38821" />
        <path
            d="M66.968 294.742C67.2577 296.902 66.083 300.063 64.0937 301.808C63.5455 302.285 62.919 302.731 62.1906 302.99C61.4701 303.248 60.6321 303.303 60.0212 303.021C59.3869 302.731 59.0579 302.137 58.9718 301.526C58.7525 299.969 59.9116 298.287 61.5014 297.152C63.0756 296.009 65.0335 295.321 66.968 294.742Z"
            fill="#C38821" />
        <path
            d="M67.1794 295.031C65.0022 294.93 62.0966 293.224 60.7261 290.954C60.3502 290.328 60.0291 289.632 59.9037 288.881C59.7784 288.122 59.8724 287.3 60.2562 286.737C60.6556 286.157 61.2978 285.946 61.9165 285.97C63.4907 286.024 64.9395 287.464 65.7775 289.225C66.6155 290.986 66.9444 293.036 67.1794 295.031Z"
            fill="#C38821" />
        <path
            d="M96.1958 306.754C88.3093 307.653 80.2505 305.682 73.2176 302.004C66.1848 298.326 60.1152 292.997 54.8366 287.065C38.766 269.02 29.7439 244.871 30.0493 220.722C33.9887 220.183 37.9593 221.38 41.6637 222.812C55.7216 228.243 68.2993 237.461 77.713 249.23C87.1267 260.999 93.3451 275.288 95.5458 290.195C96.1567 294.382 97.073 302.614 96.1958 306.754Z"
            fill="#6FCF97" />
        <path
            d="M35.0773 225.817C43.3084 235.536 50.6232 245.975 57.75 256.507C64.8847 267.048 71.8706 277.706 79.4908 287.902C83.7513 293.599 88.2075 299.155 92.977 304.437C93.3999 304.907 94.1831 304.289 93.7523 303.819C85.2315 294.374 77.7209 284.084 70.5235 273.614C63.3105 263.12 56.3795 252.423 48.9394 242.078C44.7807 236.295 40.4576 230.629 35.8526 225.199C35.4375 224.706 34.6622 225.324 35.0773 225.817Z"
            fill="white" />
        <path
            d="M82.9289 291.26C78.8643 290.36 74.8701 289.17 70.9777 287.707C67.0854 286.251 63.287 284.53 59.6296 282.542C57.562 281.415 55.5336 280.21 53.56 278.927C53.0275 278.583 52.4401 279.381 52.9805 279.733C56.5283 282.034 60.2327 284.092 64.0624 285.876C67.8842 287.66 71.8314 289.178 75.8726 290.414C78.1672 291.119 80.4854 291.721 82.8271 292.246C83.0856 292.3 83.344 292.05 83.3753 291.807C83.3988 291.518 83.1952 291.322 82.9289 291.26Z"
            fill="white" />
        <path
            d="M75.1912 280.015C75.8256 276.063 75.7081 272.025 75.1207 268.073C74.5177 264.059 73.4526 260.131 72.2308 256.273C71.5417 254.082 70.7976 251.906 70.0458 249.739C69.8343 249.136 68.9259 249.527 69.1373 250.13C70.4452 253.91 71.7374 257.697 72.7477 261.563C73.7502 265.389 74.4785 269.31 74.6117 273.277C74.69 275.492 74.5569 277.722 74.2044 279.905C74.1026 280.539 75.0894 280.648 75.1912 280.015Z"
            fill="white" />
        <path
            d="M62.128 261.492C56.8651 259.63 51.8606 257.079 47.279 253.894C45.9947 253.002 44.7416 252.063 43.5277 251.077C43.0343 250.678 42.4469 251.476 42.9481 251.883C47.3182 255.42 52.166 258.378 57.3115 260.647C58.776 261.297 60.264 261.883 61.7755 262.416C62.3707 262.635 62.731 261.703 62.128 261.492Z"
            fill="white" />
        <path
            d="M53.5287 248.291C53.4191 242.766 52.1425 237.296 49.8478 232.273C49.1978 230.856 48.4695 229.487 47.6628 228.157C47.3339 227.609 46.488 228.133 46.817 228.681C49.6051 233.259 51.4455 238.415 52.1817 243.729C52.3931 245.255 52.5106 246.781 52.5419 248.322C52.5498 248.964 53.5444 248.933 53.5287 248.291Z"
            fill="white" />
        <path
            d="M82.2084 345.277C77.3293 345.277 73.3821 341.326 73.3821 336.458C73.3821 331.583 77.3371 327.639 82.2084 327.639H190.959C191.594 327.639 192.103 327.131 192.103 326.497V326.458C192.103 325.855 191.609 325.362 191.006 325.362H80.6343C74.4081 325.362 69.3566 330.409 69.3566 336.63C69.3566 342.852 74.4081 347.899 80.6343 347.899H190.779C191.508 347.899 192.103 347.304 192.103 346.576V346.514C192.103 345.833 191.555 345.285 190.873 345.285H82.2084V345.277Z"
            fill="#504F6D" />
        <path
            d="M73.3821 336.45C73.3821 341.326 77.298 345.27 82.1223 345.27H190.936L190.779 344.659C189.393 339.268 189.393 333.618 190.779 328.234L190.936 327.624H82.1223C77.2901 327.631 73.3821 331.583 73.3821 336.45Z"
            fill="#EDEDF9" />
        <path
            d="M75.9431 338.203C75.9431 333.328 79.8589 329.384 84.6833 329.384H190.529C190.615 329.001 190.685 328.625 190.787 328.242L190.944 327.631H82.1223C77.2901 327.631 73.3821 331.583 73.3821 336.45C73.3821 340.058 75.528 343.149 78.598 344.518C76.9612 342.922 75.9431 340.684 75.9431 338.203Z"
            fill="#DCDCEF" />
        <path d="M153.868 334.353H106.314V335.003H153.868V334.353Z" fill="#DCDCEF" />
        <path d="M183.762 340.551H136.208V341.2H183.762V340.551Z" fill="#DCDCEF" />
        <path d="M123.662 334.76V344.886L128.274 341.13L132.809 344.753L132.277 334.721L123.662 334.76Z"
            fill="#D27C7B" />
        <path
            d="M198.211 325.361H92.4828C88.4182 325.361 85.121 322.067 85.121 318.006V316.081C85.121 312.019 88.4182 308.725 92.4828 308.725H198.219C202.283 308.725 205.58 312.019 205.58 316.081V318.006C205.58 322.067 202.283 325.361 198.211 325.361Z"
            fill="#9098B1" />
        <path opacity="0.43" d="M188.97 308.718H186.989V325.362H188.97V308.718Z" fill="white" />
        <path opacity="0.43" d="M180.199 308.718H178.217V325.362H180.199V308.718Z" fill="white" />
        <path d="M85.114 313.366V315.729L179.439 308.718H90.8233C87.6671 308.718 85.114 311.644 85.114 313.366Z"
            fill="#223263" />
        <path opacity="0.43" d="M101.553 308.718H99.5713V325.362H101.553V308.718Z" fill="white" />
        <path opacity="0.43" d="M109.94 308.718H107.959V325.362H109.94V308.718Z" fill="white" />
        <path
            d="M91.5908 297.277C91.5908 302.152 95.2404 306.096 99.7358 306.096H201.156L201.007 305.486C199.715 300.094 199.715 294.444 201.007 289.061L201.156 288.45H99.7358C95.2404 288.45 91.5908 292.402 91.5908 297.277Z"
            fill="#EDEDF9" />
        <path
            d="M99.8219 306.096C95.2795 306.096 91.5908 302.144 91.5908 297.277C91.5908 292.402 95.2717 288.458 99.8219 288.458H201.188C201.775 288.458 202.253 287.949 202.253 287.316V287.276C202.253 286.674 201.799 286.181 201.235 286.181H98.3574C92.5541 286.181 87.8473 291.228 87.8473 297.449C87.8473 303.67 92.5541 308.718 98.3574 308.718H201.015C201.697 308.718 202.253 308.123 202.253 307.395V307.333C202.253 306.652 201.736 306.104 201.101 306.104H99.8219V306.096Z"
            fill="#504F6D" />
        <path
            d="M93.9873 299.022C93.9873 294.147 97.6369 290.203 102.132 290.203H200.78C200.859 289.82 200.929 289.444 201.015 289.061L201.164 288.45H99.7436C95.2404 288.45 91.5986 292.402 91.5986 297.269C91.5986 300.877 93.5957 303.968 96.4621 305.337C94.9349 303.741 93.9873 301.503 93.9873 299.022Z"
            fill="#DCDCEF" />
        <path d="M154.511 295.196H106.957V295.845H154.511V295.196Z" fill="#DCDCEF" />
        <path d="M184.396 301.393H136.842V302.043H184.396V301.393Z" fill="#DCDCEF" />
        <path
            d="M177.465 239.096C181.71 239.096 185.148 235.661 185.148 231.42C185.148 227.178 181.71 223.743 177.465 223.743H82.8663C82.3181 223.743 81.8717 223.297 81.8717 222.749V222.718C81.8717 222.194 82.2946 221.771 82.8193 221.771H178.828C184.248 221.771 188.633 226.161 188.633 231.568C188.633 236.983 184.24 241.366 178.828 241.366H83.0308C82.3964 241.366 81.8795 240.849 81.8795 240.215V240.161C81.8795 239.566 82.3572 239.088 82.9524 239.088H177.465V239.096Z"
            fill="#D27C7B" />
        <path
            d="M185.148 231.42C185.148 235.661 181.741 239.096 177.544 239.096H82.8898L83.0229 238.564C84.229 233.877 84.229 228.963 83.0229 224.275L82.8898 223.743H177.544C181.741 223.743 185.148 227.178 185.148 231.42Z"
            fill="#EDEDF9" />
        <path
            d="M182.916 232.938C182.916 228.696 179.509 225.261 175.312 225.261H83.25C83.1796 224.933 83.1091 224.596 83.0308 224.267L82.8976 223.735H177.544C181.741 223.735 185.148 227.171 185.148 231.412C185.148 234.55 183.284 237.242 180.614 238.431C182.031 237.046 182.916 235.098 182.916 232.938Z"
            fill="#DCDCEF" />
        <path d="M156.5 229.596H115.133V230.16H156.5V229.596Z" fill="#DCDCEF" />
        <path d="M168.067 234.698H126.7V235.262H168.067V234.698Z" fill="#DCDCEF" />
        <path
            d="M192.072 286.141H86.3357C82.2711 286.141 78.9739 282.847 78.9739 278.785V271.328C78.9739 267.266 82.2711 263.972 86.3357 263.972H192.072C196.136 263.972 199.433 267.266 199.433 271.328V278.785C199.433 282.847 196.136 286.141 192.072 286.141Z"
            fill="#0177A2" />
        <path opacity="0.43" d="M182.822 263.965H180.841V286.142H182.822V263.965Z" fill="white" />
        <path opacity="0.43" d="M174.051 263.965H172.069V286.142H174.051V263.965Z" fill="white" />
        <path d="M78.9739 269.662V273.308L173.299 263.965H84.6754C81.5271 263.965 78.9739 266.516 78.9739 269.662Z"
            fill="#40BFFF" />
        <path opacity="0.43" d="M95.4049 263.965H93.4234V286.142H95.4049V263.965Z" fill="white" />
        <path opacity="0.43" d="M103.8 263.965H101.819V286.142H103.8V263.965Z" fill="white" />
        <path
            d="M83.4693 261.289C79.4908 261.289 76.272 257.337 76.272 252.47C76.272 247.595 79.4908 243.651 83.4693 243.651H172.132C172.649 243.651 173.064 243.142 173.064 242.508V242.469C173.064 241.866 172.665 241.373 172.171 241.373H82.1849C77.11 241.373 72.9905 246.421 72.9905 252.642C72.9905 258.863 77.11 263.91 82.1849 263.91H171.983C172.578 263.91 173.064 263.315 173.064 262.588V262.525C173.064 261.844 172.618 261.297 172.062 261.297H83.4693V261.289Z"
            fill="#504F6D" />
        <path
            d="M76.272 252.462C76.272 257.337 79.4595 261.281 83.3988 261.281H172.116L171.991 260.671C170.855 255.279 170.855 249.629 171.991 244.245L172.116 243.635H83.3988C79.4595 243.643 76.272 247.595 76.272 252.462Z"
            fill="#EDEDF9" />
        <path
            d="M78.363 254.215C78.363 249.34 81.5505 245.396 85.4899 245.396H171.78C171.85 245.012 171.905 244.637 171.991 244.253L172.116 243.643H83.3988C79.4595 243.643 76.272 247.595 76.272 252.462C76.272 256.069 78.0184 259.16 80.5246 260.53C79.1932 258.933 78.363 256.695 78.363 254.215Z"
            fill="#DCDCEF" />
        <path d="M141.894 250.365H103.127V251.014H141.894V250.365Z" fill="#DCDCEF" />
        <path d="M166.258 256.562H127.491V257.212H166.258V256.562Z" fill="#DCDCEF" />
        <path d="M138.166 256.922V267.048L141.925 263.292L145.622 266.923L145.191 256.891L138.166 256.922Z"
            fill="#223263" />
        <path
            d="M160.087 134.371C159.327 138.416 157.134 142.18 153.994 144.833C153.884 144.927 153.767 145.029 153.743 145.177C153.72 145.318 153.806 145.451 153.9 145.561C154.276 145.999 154.847 146.202 155.404 146.375C157.479 147.016 159.656 147.345 161.833 147.353C162.241 147.353 162.679 147.329 162.992 147.063C163.22 146.868 163.329 146.578 163.431 146.304C164.238 144.074 164.903 141.797 165.42 139.481C165.444 139.379 165.467 139.269 165.444 139.16C165.405 138.948 165.201 138.815 165.021 138.706C163.674 137.853 162.468 136.773 161.473 135.529"
            fill="#FF948C" />
        <path
            d="M165.428 139.168C165.389 138.956 165.185 138.823 165.005 138.714C163.658 137.861 162.452 136.781 161.457 135.537L160.079 134.371C160.009 134.731 159.922 135.091 159.828 135.443C159.962 135.795 160.048 136.178 160.063 136.617C160.134 138.236 161.794 139.934 162.413 141.429C163.243 143.432 163.251 145.357 162.601 147.259C162.734 147.22 162.867 147.157 162.977 147.063C163.204 146.868 163.314 146.578 163.415 146.304C164.222 144.074 164.888 141.797 165.405 139.481C165.428 139.379 165.452 139.269 165.428 139.168Z"
            fill="#EF7E7B" />
        <path
            d="M176.494 145.209C175.703 143.487 175.609 141.453 176.251 139.668C176.588 138.729 177.121 137.853 177.277 136.867C177.505 135.427 176.894 133.987 176.189 132.712C175.484 131.436 174.654 130.184 174.372 128.752C174.004 126.858 174.724 124.793 176.189 123.54L177.865 124.417C177.168 126.459 177.34 128.791 178.327 130.708C178.867 131.749 179.643 132.696 179.932 133.839C180.418 135.771 179.408 137.736 178.39 139.441C177.371 141.155 176.267 143.033 176.565 144.997"
            fill="#1E1E1E" />
        <path
            d="M169.344 114.111C171.756 114.338 174.043 115.613 175.5 117.538C176.956 119.464 177.559 122.022 177.121 124.393C176.901 125.591 176.424 126.733 176.244 127.938C176.063 129.143 176.228 130.497 177.089 131.358C177.418 131.679 177.685 131.914 177.982 132.266C178.28 132.618 178.46 132.9 178.202 133.275C177.857 133.768 177.191 133.932 176.698 134.285C176.424 134.48 176.275 134.793 176.126 135.091C174.873 137.657 173.283 140.067 171.411 142.227C171.31 142.345 171.2 142.462 171.059 142.517C170.84 142.595 170.597 142.509 170.378 142.415C167.973 141.398 165.546 140.38 163.376 138.925C161.207 137.469 159.28 135.544 158.254 133.142C157.283 130.881 157.173 128.275 157.941 125.935"
            fill="#FF948C" />
        <path
            d="M175.539 128.885C175.539 129.261 175.32 129.574 175.053 129.574C174.787 129.574 174.568 129.269 174.568 128.885C174.568 128.502 174.787 128.197 175.053 128.197C175.32 128.197 175.539 128.502 175.539 128.885Z"
            fill="#1E1E1E" />
        <path opacity="0.51"
            d="M174.278 133.111C174.278 134.222 173.377 135.122 172.265 135.122C171.153 135.122 170.252 134.222 170.252 133.111C170.252 132 171.153 131.1 172.265 131.1C173.377 131.1 174.278 132 174.278 133.111Z"
            fill="#F96662" />
        <path
            d="M175.319 136.491L172.939 135.998C172.939 135.998 174.004 137.125 174.575 137.289C175.155 137.454 175.319 136.491 175.319 136.491Z"
            fill="#F96662" />
        <path
            d="M155.826 118.54C152.443 119.291 149.522 118.446 148.339 117.945C147.157 117.437 146.076 116.599 145.496 115.449C144.925 114.307 144.893 112.953 145.16 111.701C145.904 108.25 149.013 105.433 152.529 105.049C154.55 104.822 156.688 105.378 158.215 106.716C159.742 108.054 160.572 110.214 160.149 112.194"
            fill="#1E1E1E" />
        <path
            d="M178.397 115.903C177.082 114.244 172.876 110.472 167.049 110.324C163.588 110.112 160.831 110.464 158.45 111.912C156.069 113.36 154.761 115.449 153.344 117.844C151.644 120.708 150.571 122.586 150.689 125.919C150.806 129.253 152.318 132.297 154.934 134.371C155.631 134.926 157.455 136.39 158.348 136.491C159.452 136.617 159.437 136.867 160.259 136.116C161.081 135.372 161.645 134.371 162.06 133.338C162.515 132.203 162.93 130.873 164.042 130.356C164.95 129.934 165.945 130.223 166.955 130.489C166.947 130.732 166.947 130.974 166.971 131.217C167.128 132.978 167.973 134.59 168.663 136.217C169.352 137.845 169.908 139.653 169.454 141.359C169.14 142.525 168.396 143.518 167.872 144.606C166.877 146.68 166.728 149.137 167.472 151.312L167.59 151.07C167.48 148.66 169.038 146.539 170.487 144.598C171.928 142.665 173.393 140.42 173.048 138.033C172.845 136.624 172.022 135.388 171.505 134.065C171.02 132.829 170.808 131.491 170.855 130.161C171.012 130.082 171.177 130.004 171.333 129.926C174.012 128.549 176.667 126.874 178.303 124.346C179.909 121.827 180.261 118.266 178.397 115.903Z"
            fill="#1E1E1E" />
        <path
            d="M152.623 120.223C152.623 120.223 151.589 120.223 153.336 117.852C155.082 115.48 159.828 110.738 159.828 110.738C159.828 110.738 160.604 110.269 159.233 113.235C157.863 116.2 154.659 118.939 152.623 120.223Z"
            fill="#FC6681" />
        <path
            d="M160.048 110.832C160.048 110.832 160.706 110.527 161.708 111.92C162.703 113.305 164.003 116.513 164.003 116.513C164.003 116.513 164.12 117.022 162.734 115.739C161.348 114.455 160.392 112.186 160.048 110.832Z"
            fill="#FC6681" />
        <path
            d="M160.048 111.012C160.048 111.012 160.063 110.386 161.41 109.862C162.757 109.338 165.522 108.985 165.522 108.985C165.522 108.985 165.945 108.993 164.543 109.862C163.141 110.731 161.168 111.02 160.048 111.012Z"
            fill="#FC6681" />
        <path
            d="M161.011 110.957C161.011 111.482 160.58 111.912 160.055 111.912C159.531 111.912 159.1 111.482 159.1 110.957C159.1 110.433 159.531 110.003 160.055 110.003C160.58 110.003 161.011 110.433 161.011 110.957Z"
            fill="#FC6681" />
        <path
            d="M165.49 130.255C165.89 131.201 165.905 133.58 164.911 133.815C164.253 133.964 163.556 133.729 163.031 133.299C162.514 132.876 162.154 132.281 161.88 131.663C161.528 130.881 161.3 129.996 161.504 129.159C161.716 128.322 162.467 127.586 163.329 127.633C163.932 127.672 164.464 128.071 164.801 128.572C165.138 129.089 165.318 129.675 165.49 130.255Z"
            fill="#FF948C" />
        <path
            d="M165.209 132.54C162.656 132.54 161.559 130.278 161.927 128.337C161.732 128.58 161.583 128.869 161.504 129.167C161.293 130.004 161.528 130.881 161.88 131.671C162.154 132.281 162.515 132.876 163.032 133.306C163.548 133.729 164.253 133.972 164.911 133.823C165.365 133.721 165.608 133.166 165.702 132.516C165.538 132.524 165.381 132.54 165.209 132.54Z"
            fill="#EF7E7B" />
        <path
            d="M200.506 254.543C200.906 258.065 201.705 261.852 198.572 267.353C198.219 267.964 197.703 268.519 197.64 269.224C197.515 270.483 198.713 271.493 199.903 271.9C201.101 272.299 202.417 272.346 203.545 272.925C204.9 273.621 205.761 274.975 206.842 276.047C208.275 277.471 210.155 278.442 212.144 278.786C212.371 278.825 212.685 278.817 212.755 278.59C212.794 278.489 212.755 278.371 212.716 278.27C212.207 277.002 210.899 276.266 210.037 275.21C209.192 274.169 208.792 272.847 208.134 271.673C207.602 270.718 206.725 268.918 206.31 267.909C205.636 266.273 205.918 264.528 206.294 262.799C206.67 261.07 207.523 256.907 208.197 255.099"
            fill="#FF948C" />
        <path
            d="M157.596 198.96C167.331 195.76 177.646 194.304 187.889 194.688C195.494 194.977 203.749 196.652 208.589 202.513C212.074 206.739 212.457 208.758 212.779 214.22C213.076 219.181 212.418 227.476 211.98 232.429C211.244 240.849 211.056 249.582 209.168 257.822C209.105 258.096 209.035 258.386 208.847 258.589C208.651 258.8 208.354 258.894 208.072 258.965C205.73 259.583 203.247 259.653 200.874 259.168C200.53 259.098 200.17 259.004 199.935 258.753C199.684 258.487 199.613 258.096 199.566 257.728C198.791 251.898 198.133 242.813 197.64 236.952C197.24 232.226 197.311 230.7 195.76 226.224C195.345 225.026 194.867 223.806 193.99 222.882C192.205 221.004 189.299 220.856 186.707 220.996C177.951 221.45 169.101 223.688 160.518 221.881"
            fill="#080835" />
        <path
            d="M189.213 220.84C188.633 224.338 186.738 227.601 183.989 229.847C183.441 230.293 182.838 230.731 182.58 231.388C182.117 232.562 182.987 233.861 184.028 234.581C185.07 235.293 186.323 235.7 187.247 236.561C188.359 237.602 188.821 239.135 189.565 240.466C190.552 242.226 192.095 243.674 193.92 244.543C194.131 244.644 194.429 244.715 194.562 244.527C194.625 244.433 194.625 244.316 194.609 244.206C194.468 242.845 193.411 241.78 192.87 240.528C192.338 239.3 192.322 237.915 192.009 236.608C191.758 235.544 191.406 233.572 191.281 232.484C191.077 230.731 191.641 229.933 192.479 228.368C193.309 226.811 195.533 224.08 196.677 222.522"
            fill="#FF948C" />
        <path
            d="M139.114 204.61C138.691 208.726 138.573 213.492 141.032 216.904C144.643 221.912 151.903 222.828 158.074 223.133C164.245 223.438 170.433 222.898 175.774 219.791C181.115 216.693 185.759 212.514 190.137 208.163C196.52 201.832 202.449 195.056 208.22 188.162C198.838 197.395 190.004 207.967 186.863 220.746C186.801 221.012 186.738 221.294 186.824 221.552C186.942 221.912 187.302 222.123 187.639 222.311C190.247 223.72 192.855 225.128 195.47 226.545C195.831 226.74 196.214 226.936 196.622 226.889C197.107 226.826 197.475 226.427 197.796 226.052C202.018 221.036 205.793 215.652 209.434 210.205C214.721 202.31 219.905 193.796 220.54 184.319C220.704 181.909 220.477 179.256 218.832 177.48C217.015 175.516 214.047 175.219 211.369 175.242C200.428 175.328 188.665 182.23 178.883 187.129C169.109 192.035 157.737 205.111 150.767 190.4"
            fill="#313155" />
        <path
            d="M218.934 157.917L232.467 140.42C232.82 139.958 233.556 140.177 233.603 140.756L234.707 153.856L226.413 166.846L218.934 157.917Z"
            fill="#40BFFF" />
        <path d="M212.551 161.399L231.261 139.825L234.261 153.55L212.551 161.399Z" fill="#ECEBF2" />
        <path d="M210.468 161.399L220.18 143.745L234.707 153.863L210.468 161.399Z" fill="white" />
        <path
            d="M201.806 169.162C204.258 165.194 212.685 151.86 215.003 148.198C215.355 147.642 216.036 147.408 216.655 147.619L234.715 153.863L221.205 175.015C221.002 175.328 220.626 175.477 220.266 175.383L202.386 170.61C201.751 170.437 201.462 169.717 201.806 169.162Z"
            fill="#40BFFF" />
        <path
            d="M234.308 153.723C234.112 154.482 233.619 155.194 232.741 155.71C230.384 157.095 228.724 159.654 226.562 161.368C224.346 163.121 221.949 164.78 219.451 166.118C214.407 168.825 208.025 170.281 202.331 170.586C202.347 170.594 202.362 170.602 202.386 170.61L220.266 175.383C220.626 175.477 221.002 175.328 221.205 175.015L234.715 153.863L234.308 153.723Z"
            fill="#40BFFF" />
        <path
            d="M156.273 142.321C149.569 146.492 144.964 153.488 142.426 160.961C139.889 168.434 139.247 176.416 139.074 184.304C138.902 192.192 139.184 200.111 138.409 207.96C138.354 208.499 138.409 209.219 138.941 209.352C139.294 209.438 139.63 209.196 139.905 208.961C147.807 202.482 158.035 199.704 167.081 194.946C167.613 194.664 168.169 194.359 168.49 193.851C168.694 193.53 168.788 193.154 168.882 192.778C169.234 191.346 169.587 189.914 169.939 188.482C171.482 182.207 173.033 175.884 173.268 169.428C173.51 162.972 172.054 157.917 168.545 152.486C167.879 151.461 165.444 147.11 164.567 146.257C162.335 144.074 159.586 145.475 156.273 142.321Z"
            fill="#E4DFDF" />
        <path
            d="M169.994 152.862C169.469 154.028 168.388 154.92 166.924 154.834C161.52 154.505 155.717 154.497 150.297 153.683C149.733 159.951 150.9 166.54 154.448 171.822C158.419 177.73 164.621 181.463 170.887 184.523C172.062 179.546 173.072 174.522 173.26 169.42C173.463 163.739 172.594 157.886 169.994 152.862Z"
            fill="#ACACAC" />
        <path
            d="M211.815 170.422C212.833 170.993 214.157 170.469 214.964 169.623C215.778 168.786 216.326 167.886 217.047 166.971C217.916 165.859 219.733 165.03 221.464 163.848C221.668 163.708 221.942 163.888 221.879 164.13C221.597 165.163 220.039 166.838 219.78 167.8C219.749 167.91 219.725 168.043 219.796 168.129C219.866 168.215 219.992 168.215 220.101 168.199C222.036 168.004 223.492 166.368 225.301 165.672C225.568 165.57 225.857 165.492 226.132 165.57C226.719 165.75 226.28 166.939 226.132 167.534C225.834 168.77 224.847 170.132 223.9 170.969C220.446 173.99 216.303 174.663 211.76 174.029"
            fill="#FF948C" />
        <path
            d="M150.618 149.818C153.109 148.026 156.328 147.916 159.272 148.433C164.927 149.426 170.127 152.447 174.873 155.945C179.29 159.2 183.449 162.917 188.242 165.46C194.664 168.864 201.955 169.983 209.09 169.764C210.445 169.725 211.878 169.655 213.084 170.336C214.29 171.016 215.12 172.754 214.423 174.021C214 174.796 213.162 175.164 212.387 175.485C206.733 177.809 201.047 180.148 195.134 181.502C189.221 182.856 183.01 183.208 177.16 181.557C169.101 179.288 162.303 173.434 156.265 167.182C154.479 165.335 152.709 163.395 151.535 161.031C150.36 158.676 147.901 153.198 150.618 149.818Z"
            fill="#E4DFDF" />
        <path d="M150 157.5C148.667 152.333 149.5 143.5 163.5 149.5" stroke="black" stroke-width="0.1" />
        <g opacity="0.46">
            <path opacity="0.46"
                d="M159.296 155.068C160.322 155.068 160.322 153.472 159.296 153.472C158.27 153.48 158.27 155.068 159.296 155.068Z"
                fill="#E4DFDF" />
        </g>
        <g opacity="0.46">
            <path opacity="0.46"
                d="M172.156 172.159C173.181 172.159 173.181 170.562 172.156 170.562C171.13 170.57 171.13 172.159 172.156 172.159Z"
                fill="#E4DFDF" />
        </g>
        <g opacity="0.46">
            <path opacity="0.46"
                d="M173.902 159.56C174.928 159.56 174.928 157.964 173.902 157.964C172.876 157.972 172.876 159.56 173.902 159.56Z"
                fill="#E4DFDF" />
        </g>
        <g opacity="0.46">
            <path opacity="0.46"
                d="M162.546 166.673C163.572 166.673 163.572 165.077 162.546 165.077C161.52 165.077 161.512 166.673 162.546 166.673Z"
                fill="#E4DFDF" />
        </g>
        <g opacity="0.46">
            <path opacity="0.46"
                d="M187.138 171.165C188.163 171.165 188.163 169.569 187.138 169.569C186.112 169.569 186.112 171.165 187.138 171.165Z"
                fill="#E4DFDF" />
        </g>
        <g opacity="0.46">
            <path opacity="0.46"
                d="M184.412 180.391C185.438 180.391 185.438 178.795 184.412 178.795C183.386 178.803 183.386 180.391 184.412 180.391Z"
                fill="#E4DFDF" />
        </g>
        <g opacity="0.46">
            <path opacity="0.46"
                d="M202.738 174.655C203.764 174.655 203.764 173.059 202.738 173.059C201.712 173.059 201.712 174.655 202.738 174.655Z"
                fill="#E4DFDF" />
        </g>
        <g opacity="0.46">
            <path opacity="0.46"
                d="M165.287 190.869C166.313 190.869 166.313 189.273 165.287 189.273C164.261 189.281 164.261 190.869 165.287 190.869Z"
                fill="white" />
        </g>
        <g opacity="0.46">
            <path opacity="0.46"
                d="M155.302 178.521C156.328 178.521 156.328 176.924 155.302 176.924C154.276 176.932 154.276 178.521 155.302 178.521Z"
                fill="white" />
        </g>
        <g opacity="0.46">
            <path opacity="0.46"
                d="M152.553 194.61C153.579 194.61 153.579 193.013 152.553 193.013C151.527 193.021 151.527 194.61 152.553 194.61Z"
                fill="white" />
        </g>
        <g opacity="0.46">
            <path opacity="0.46"
                d="M142.943 203.468C143.969 203.468 143.969 201.871 142.943 201.871C141.917 201.879 141.917 203.468 142.943 203.468Z"
                fill="white" />
        </g>
        <g opacity="0.46">
            <path opacity="0.46"
                d="M143.319 183.639C144.345 183.639 144.345 182.042 143.319 182.042C142.293 182.042 142.293 183.639 143.319 183.639Z"
                fill="white" />
        </g>
        <g opacity="0.46">
            <path opacity="0.46"
                d="M148.809 168.168C149.835 168.168 149.835 166.572 148.809 166.572C147.783 166.572 147.783 168.168 148.809 168.168Z"
                fill="white" />
        </g>
        <g opacity="0.46">
            <path opacity="0.46"
                d="M148.809 156.195C149.835 156.195 149.835 154.599 148.809 154.599C147.783 154.599 147.783 156.195 148.809 156.195Z"
                fill="white" />
        </g>
        <g opacity="0.46">
            <path opacity="0.46"
                d="M168.287 181.518C169.313 181.518 169.313 179.922 168.287 179.922C167.261 179.922 167.261 181.518 168.287 181.518Z"
                fill="white" />
        </g>
        <g opacity="0.46">
            <path opacity="0.46"
                d="M141.447 171.165C142.473 171.165 142.473 169.569 141.447 169.569C140.421 169.569 140.414 171.165 141.447 171.165Z"
                fill="white" />
        </g>
    </g>
    <defs>
        <clipPath id="clip0_1_405">
            <rect width="290" height="380" fill="white" />
        </clipPath>
    </defs>
</svg>